<?xml version="1.0" encoding="UTF-8"?><!DOCTYPE svg PUBLIC "-//W3C//DTD SVG 1.1//EN" "http://www.w3.org/Graphics/SVG/1.1/DTD/svg11.dtd"><svg xmlns="http://www.w3.org/2000/svg" xmlns:xlink="http://www.w3.org/1999/xlink"><symbol id="arrow-down" viewBox="0 0 9 7">
<path d="M4.5 7L-3.75305e-07 2.11572e-07L9 9.98378e-07L4.5 7Z" fill="#96317D"/>
</symbol><symbol id="arrow-left" viewBox="0 0 51 8">
<path d="M0.646447 3.64645C0.451184 3.84171 0.451184 4.1583 0.646447 4.35356L3.82843 7.53554C4.02369 7.7308 4.34027 7.7308 4.53553 7.53554C4.7308 7.34028 4.7308 7.02369 4.53553 6.82843L1.70711 4L4.53553 1.17158C4.7308 0.976315 4.7308 0.659732 4.53553 0.46447C4.34027 0.269208 4.02369 0.269208 3.82843 0.46447L0.646447 3.64645ZM51 3.5L1 3.5L1 4.5L51 4.5L51 3.5Z" fill="#993280"/>
</symbol><symbol id="arrow-right-long-slider" viewBox="0 0 36 8">
<path d="M35.3536 4.35355C35.5488 4.15829 35.5488 3.84171 35.3536 3.64645L32.1716 0.464466C31.9763 0.269204 31.6597 0.269204 31.4645 0.464466C31.2692 0.659728 31.2692 0.976311 31.4645 1.17157L34.2929 4L31.4645 6.82843C31.2692 7.02369 31.2692 7.34027 31.4645 7.53553C31.6597 7.7308 31.9763 7.7308 32.1716 7.53553L35.3536 4.35355ZM0 4.5L35 4.5V3.5L0 3.5L0 4.5Z" fill="#993280"/>
</symbol><symbol id="arrow-right-slider" viewBox="0 0 16 8">
<path d="M15.3536 4.35355C15.5488 4.15829 15.5488 3.84171 15.3536 3.64645L12.1716 0.464466C11.9763 0.269204 11.6597 0.269204 11.4645 0.464466C11.2692 0.659728 11.2692 0.976311 11.4645 1.17157L14.2929 4L11.4645 6.82843C11.2692 7.02369 11.2692 7.34027 11.4645 7.53553C11.6597 7.7308 11.9763 7.7308 12.1716 7.53553L15.3536 4.35355ZM0 4.5L15 4.5V3.5L0 3.5L0 4.5Z" fill="#993280"/>
</symbol><symbol id="arrow-right" viewBox="0 0 51 8">
<path d="M50.3536 4.35355C50.5488 4.15829 50.5488 3.84171 50.3536 3.64645L47.1716 0.464466C46.9763 0.269204 46.6597 0.269204 46.4645 0.464466C46.2692 0.659728 46.2692 0.976311 46.4645 1.17157L49.2929 4L46.4645 6.82843C46.2692 7.02369 46.2692 7.34027 46.4645 7.53553C46.6597 7.7308 46.9763 7.7308 47.1716 7.53553L50.3536 4.35355ZM0 4.5H50V3.5H0V4.5Z" fill="#FFC464"/>
</symbol><symbol id="attention" viewBox="0 0 30 27">
<path fill-rule="evenodd" clip-rule="evenodd" d="M18.8639 2.5L28.3901 19C30.3146 22.3333 27.909 26.5 24.06 26.5H5.00746C1.15845 26.5 -1.24717 22.3333 0.677333 19L10.2036 2.5C12.1281 -0.833338 16.9394 -0.833328 18.8639 2.5ZM17.1318 3.5C15.9771 1.5 13.0904 1.5 11.9357 3.5L2.40938 20C1.25468 22 2.69805 24.5 5.00746 24.5H24.06C26.3694 24.5 27.8128 22 26.6581 20L17.1318 3.5Z" fill="#FFC464"/>
<path d="M13.3659 8.7998H16.3419L15.8459 16.1118H13.8619L13.3659 8.7998ZM14.8539 20.1278C14.4165 20.1278 14.0485 19.9891 13.7499 19.7118C13.4619 19.4238 13.3179 19.0771 13.3179 18.6718C13.3179 18.2665 13.4619 17.9305 13.7499 17.6638C14.0379 17.3865 14.4059 17.2478 14.8539 17.2478C15.3019 17.2478 15.6699 17.3865 15.9579 17.6638C16.2459 17.9305 16.3899 18.2665 16.3899 18.6718C16.3899 19.0771 16.2405 19.4238 15.9419 19.7118C15.6539 19.9891 15.2912 20.1278 14.8539 20.1278Z" fill="#FFC464"/>
</symbol><symbol id="check" viewBox="0 0 12 10">
<path d="M1 4.37037L5.06341 8L10.8 1" stroke="#96317D" stroke-width="2"/>
</symbol><symbol id="cross-button" viewBox="0 0 10.41 10.41">
  <path d="M.71.71l9,9" fill="none" stroke="currentColor" stroke-width="2"/>
  <path d="M9.71.71l-9,9" fill="none" stroke="currentColor" stroke-width="2"/>
</symbol><symbol id="geo" viewBox="0 0 21 20">
    <path fill="#FFC464" fill-rule="evenodd" d="M0 7.861l8.553 3.333L12.31 20l7.806-20L0 7.861z" clip-rule="evenodd"/>
</symbol><symbol id="instagram-icon" viewBox="0 0 25.6 25.6"><path d="M25.52,7.52a9.46,9.46,0,0,0-.59-3.1,6.27,6.27,0,0,0-1.48-2.27A6.27,6.27,0,0,0,21.18.67,9.47,9.47,0,0,0,18.07.08C16.71,0,16.27,0,12.8,0S8.89,0,7.52.08a9.46,9.46,0,0,0-3.1.59A6.27,6.27,0,0,0,2.15,2.15,6.27,6.27,0,0,0,.67,4.42a9.21,9.21,0,0,0-.59,3.1C0,8.89,0,9.32,0,12.8s0,3.91.08,5.28a9.46,9.46,0,0,0,.59,3.1,6.27,6.27,0,0,0,1.48,2.27,6.32,6.32,0,0,0,2.26,1.48,9.59,9.59,0,0,0,3.11.59c1.37.07,1.8.08,5.28.08s3.91,0,5.28-.08a9.46,9.46,0,0,0,3.1-.59,6.57,6.57,0,0,0,3.75-3.75,9.46,9.46,0,0,0,.59-3.1c.06-1.37.08-1.8.08-5.28S25.58,8.89,25.52,7.52Zm-5.89,0A1.54,1.54,0,1,1,21.17,6,1.53,1.53,0,0,1,19.63,7.5ZM12.8,19.37a6.57,6.57,0,1,1,6.57-6.57A6.57,6.57,0,0,1,12.8,19.37Z" fill="#ca8cbb" fill-rule="evenodd"/><path d="M12.8,8.53a4.27,4.27,0,1,0,4.27,4.27A4.27,4.27,0,0,0,12.8,8.53Z" fill="#ca8cbb" fill-rule="evenodd"/></symbol><symbol id="logo-fixper" viewBox="0 0 159 45">
  <path d="M44.5654 5.28335H66.9765V11.1676H51.1082V17.9015H63.4927V23.7858H51.1082V35.7454H44.5654V5.28335Z" fill="currentColor"/>
  <path d="M75.2314 14.4177V35.7454H69.3472V14.4177H75.2314ZM74.7216 5.96312C75.3447 6.55791 75.6563 7.35097 75.6563 8.3423C75.6563 9.31946 75.3447 10.1054 74.7216 10.7002C74.0985 11.295 73.2488 11.5924 72.1725 11.5924C71.1811 11.5924 70.3881 11.295 69.7933 10.7002C69.2126 10.1054 68.9223 9.31946 68.9223 8.3423C68.9223 7.35097 69.2197 6.55791 69.8145 5.96312C70.4093 5.36832 71.1953 5.07092 72.1725 5.07092C73.2488 5.07092 74.0985 5.36832 74.7216 5.96312Z" fill="currentColor"/>
  <path d="M87.2038 29.0115L82.6366 35.7454H76.3275L83.5076 24.8691L76.7524 14.4177H83.2951L87.2038 20.7268L91.1125 14.4177H97.6552L90.9 24.8691L98.0801 35.7454H91.771L87.2038 29.0115Z" fill="currentColor"/>
  <path d="M111.115 36.1703C109.897 36.1703 108.757 35.9224 107.695 35.4268C106.647 34.9169 105.903 34.4142 105.464 33.9185L104.806 33.1325V44.8798H98.9425V14.4177H104.806V17.0306C104.862 16.9456 104.947 16.8394 105.06 16.7119C105.188 16.5845 105.443 16.3508 105.825 16.0109C106.222 15.6569 106.647 15.3453 107.1 15.0762C107.553 14.793 108.141 14.5452 108.863 14.3327C109.585 14.1062 110.336 13.9929 111.115 13.9929C113.876 13.9929 116.269 15.0692 118.295 17.2218C120.334 19.3602 121.354 21.9801 121.354 25.0816C121.354 28.183 120.334 30.81 118.295 32.9626C116.269 35.101 113.876 36.1703 111.115 36.1703ZM113.727 20.8755C112.722 19.7709 111.49 19.2186 110.031 19.2186C108.587 19.2186 107.355 19.7709 106.335 20.8755C105.315 21.966 104.806 23.368 104.806 25.0816C104.806 26.7951 105.315 28.2042 106.335 29.3089C107.355 30.4135 108.587 30.9658 110.031 30.9658C111.49 30.9658 112.722 30.4135 113.727 29.3089C114.747 28.2042 115.257 26.7951 115.257 25.0816C115.257 23.368 114.747 21.966 113.727 20.8755Z" fill="currentColor"/>
  <path d="M143.756 27.0359H128.313C128.539 28.1972 129.155 29.1814 130.161 29.9886C131.166 30.7817 132.434 31.1782 133.963 31.1782C135.068 31.1782 136.088 30.9658 137.022 30.5409C137.971 30.1019 138.637 29.6629 139.019 29.2239L139.635 28.5654L142.673 32.474L142.29 32.8564C142.106 33.0405 141.724 33.345 141.143 33.7698C140.563 34.1947 139.947 34.577 139.295 34.9169C138.644 35.2427 137.794 35.533 136.746 35.7879C135.712 36.0428 134.643 36.1703 133.538 36.1703C130.409 36.1703 127.739 35.0869 125.53 32.9201C123.321 30.7392 122.216 28.1263 122.216 25.0816C122.216 22.0368 123.306 19.431 125.487 17.2642C127.668 15.0833 130.281 13.9929 133.326 13.9929C136.371 13.9929 138.906 15.0125 140.931 17.0518C142.956 19.077 143.969 21.6119 143.969 24.6567L143.756 27.0359ZM136.47 20.1108C135.62 19.3743 134.572 19.0061 133.326 19.0061C132.08 19.0061 131.018 19.3673 130.14 20.0895C129.276 20.8118 128.667 21.7535 128.313 22.9148H138.106C137.879 21.7819 137.334 20.8472 136.47 20.1108Z" fill="currentColor"/>
  <path d="M159 14.2053V20.0895C158.561 19.9479 157.909 19.87 157.046 19.8558C155.502 19.8558 154.277 20.3444 153.371 21.3216C152.478 22.2988 152.032 23.7008 152.032 25.5277V35.7454H146.169V14.4177H152.032V17.0306C152.202 16.8323 152.443 16.5774 152.755 16.2658C153.066 15.9401 153.746 15.5153 154.794 14.9913C155.856 14.4673 156.968 14.2053 158.129 14.2053H159Z" fill="currentColor"/>
  <path d="M29.6176 0H10.6538C9.84963 0 9.06626 0.0893214 8.31303 0.258608C3.55514 1.32794 0 5.58791 0 10.6803H18.9638C19.768 10.6803 20.5513 10.591 21.3046 10.4217C26.0625 9.35235 29.6176 5.09238 29.6176 0Z" fill="#F58599"/>
  <path d="M6.24083e-06 44.8751L3.60638e-06 10.6592C3.49449e-06 9.85459 0.0893249 9.07083 0.258611 8.31722C1.32794 3.55693 5.5879 -7.77115e-07 10.6803 -1.48532e-06L10.6803 34.216C10.6803 35.0205 10.591 35.8043 10.4217 36.5579C9.35235 41.3182 5.09238 44.8751 6.24083e-06 44.8751Z" fill="#EB5555"/>
  <path d="M22.5722 16.6936H10.6473C9.84358 16.6936 9.06069 16.7833 8.30792 16.9533C3.55295 18.0271 0 22.305 0 27.4188H11.9249C12.7286 27.4188 13.5115 27.3291 14.2643 27.1591C19.0192 26.0852 22.5722 21.8074 22.5722 16.6936Z" fill="#9871E3"/>
  <path fill-rule="evenodd" clip-rule="evenodd" d="M10.6803 16.75V0C5.58791 7.07437e-07 1.32794 3.56013 0.258611 8.3247C0.0893249 9.07898 3.4972e-06 9.86345 3.60932e-06 10.6688L4.90163e-06 27.4084C0.00482713 22.3261 3.5672 18.0757 8.33369 17.0083C9.08879 16.8392 9.8741 16.75 10.6803 16.75Z" fill="#FFBA4A"/>
  <path d="M0.258607 8.33369C0.0893213 9.08879 -1.12116e-07 9.8741 0 10.6803H10.6803L10.6803 0C9.8846 0 9.10924 0.0870115 8.36319 0.252038C8.35335 0.254214 8.34352 0.256405 8.33369 0.258609C4.31907 1.15865 1.15865 4.31907 0.258607 8.33369Z" fill="#F5664A"/>
  <path d="M0.258607 25.0623C0.0893213 25.8206 -1.12116e-07 26.6092 0 27.4188H10.6803L10.6803 16.6936C9.8846 16.6936 9.10924 16.781 8.36319 16.9467C8.35335 16.9489 8.34352 16.9511 8.33369 16.9533C4.31907 17.8571 1.15865 21.0308 0.258607 25.0623Z" fill="#993280"/>
</symbol><symbol id="minus-button" viewBox="0 0 30 30">
<circle cx="15" cy="15" r="15" fill="#96317D"/>
<path d="M21 14.1792H15.869H15.5256H14.5524H14.131H9V15.849H14.131H14.8227H15.4355H15.869H21V14.1792Z" fill="white"/>
</symbol><symbol id="plus-button" viewBox="0 0 30 30">
  <circle cx="15" cy="15" r="15" fill="#96317D"/>
  <path class="vertical" d="M15.8688 14.7451V14.1792V9H14.1309V14.1792V15.3103L14.131 15.6064L14.1309 15.8491V21H15.8688V15.8491V15.3103V14.7451Z" fill="currentColor"/>
  <path class="horizontal" d="M21 14.1792H15.869H15.5256H14.5524H14.131H9V15.849H14.131H14.8227H15.4355H15.869H21V14.1792Z" fill="white"/>
</symbol><symbol id="refresh-arrow" viewBox="0 0 26 25">
  <path d="M21.8661 9.68187C21.2871 7.44193 19.9494 5.47203 18.0809 4.10782C16.2123 2.74361 13.9286 2.0695 11.6187 2.20035C9.30888 2.33119 7.11586 3.2589 5.41333 4.8254C3.71079 6.3919 2.60409 8.50027 2.28179 10.7913C1.95948 13.0823 2.44152 15.4141 3.64576 17.3896C4.85001 19.365 6.70195 20.8617 8.88604 21.6248C11.0701 22.3879 13.4512 22.37 15.6236 21.5743C17.796 20.7785 19.6253 19.2542 20.7998 17.2609L19.202 16.3194C18.2454 17.9431 16.7553 19.1847 14.9858 19.8329C13.2163 20.481 11.2768 20.4956 9.49771 19.874C7.71867 19.2525 6.21017 18.0333 5.22926 16.4242C4.24835 14.8152 3.85571 12.9157 4.11824 11.0496C4.38077 9.1835 5.28223 7.46614 6.66902 6.19015C8.05582 4.91416 9.84213 4.1585 11.7236 4.05192C13.6051 3.94534 15.4653 4.49444 16.9873 5.60565C18.5093 6.71686 19.599 8.32143 20.0705 10.146L21.8661 9.68187Z" fill="currentColor"/>
  <path d="M14.1279 8.02258L20.8233 10.2966L23.0973 3.6011" stroke="currentColor" stroke-width="2" fill="none"/>
</symbol><symbol id="star" viewBox="0 0 24 23">
<path d="M11.9565 0L15.611 7.24139L23.3278 8.63729L17.8696 14.5086L18.9844 22.6127L11.9565 19L4.92865 22.6127L6.04343 14.5086L0.585194 8.63729L8.30203 7.24139L11.9565 0Z" fill="#FFAC46"/>
</symbol><symbol id="telegram-icon" viewBox="0 0 27 22">
<path d="M10.2245 14.4462L9.81619 20.5639C10.3999 20.5639 10.6666 20.3042 10.9891 19.9903L11.0162 19.964L13.8989 17.1609L19.8962 21.5918C20.9999 22.2007 21.7965 21.8854 22.0714 20.567L26.0084 2.01445C26.4115 0.398409 25.3924 -0.334551 24.3365 0.14481L1.21851 9.05901C-0.359514 9.69195 -0.350314 10.5723 0.930865 10.9646L6.86347 12.8163L20.5981 4.15127C21.2464 3.75809 21.8415 3.96947 21.3531 4.40295L10.2245 14.4462Z" fill="#CA8CBB"/>
</symbol></svg>