<svg width="30" height="27" viewBox="0 0 30 27" fill="none" xmlns="http://www.w3.org/2000/svg"><path fill-rule="evenodd" clip-rule="evenodd" d="M18.864 2.5L28.39 19c1.925 3.333-.481 7.5-4.33 7.5H5.007c-3.849 0-6.254-4.167-4.33-7.5l9.527-16.5c1.924-3.333 6.735-3.333 8.66 0zm-1.732 1c-1.155-2-4.042-2-5.196 0L2.409 20c-1.154 2 .29 4.5 2.598 4.5H24.06c2.31 0 3.753-2.5 2.598-4.5L17.132 3.5z" fill="#FFC464"/><path d="M13.366 8.8h2.976l-.496 7.312h-1.984L13.366 8.8zm1.488 11.328c-.438 0-.805-.139-1.104-.416a1.418 1.418 0 01-.432-1.04c0-.405.144-.742.432-1.008.288-.277.656-.416 1.104-.416.448 0 .816.139 1.104.416.288.266.432.602.432 1.008 0 .405-.15.752-.448 1.04-.288.277-.65.416-1.088.416z" fill="#FFC464"/></svg>