<svg xmlns="http://www.w3.org/2000/svg" viewBox="0 0 25.6 25.6"><path d="M25.52 7.52a9.46 9.46 0 00-.59-3.1 6.27 6.27 0 00-1.48-2.27A6.27 6.27 0 0021.18.67a9.47 9.47 0 00-3.11-.59C16.71 0 16.27 0 12.8 0S8.89 0 7.52.08a9.46 9.46 0 00-3.1.59 6.27 6.27 0 00-2.27 1.48A6.27 6.27 0 00.67 4.42a9.21 9.21 0 00-.59 3.1C0 8.89 0 9.32 0 12.8s0 3.91.08 5.28a9.46 9.46 0 00.59 3.1 6.27 6.27 0 001.48 2.27 6.32 6.32 0 002.26 1.48 9.59 9.59 0 003.11.59c1.37.07 1.8.08 5.28.08s3.91 0 5.28-.08a9.46 9.46 0 003.1-.59 6.57 6.57 0 003.75-3.75 9.46 9.46 0 00.59-3.1c.06-1.37.08-1.8.08-5.28s-.02-3.91-.08-5.28zm-5.89 0A1.54 1.54 0 1121.17 6a1.53 1.53 0 01-1.54 1.5zM12.8 19.37a6.57 6.57 0 116.57-6.57 6.57 6.57 0 01-6.57 6.57z" fill="#ca8cbb" fill-rule="evenodd"/><path d="M12.8 8.53a4.27 4.27 0 104.27 4.27 4.27 4.27 0 00-4.27-4.27z" fill="#ca8cbb" fill-rule="evenodd"/></svg>