<svg width="159" height="45" viewBox="0 0 159 45" fill="none" xmlns="http://www.w3.org/2000/svg"><path d="M44.565 5.283h22.412v5.885H51.108V17.9h12.385v5.885H51.108v11.96h-6.543V5.282zm30.666 9.135v21.327h-5.884V14.418h5.884zm-.51-8.455c.624.595.935 1.388.935 2.38 0 .976-.311 1.762-.934 2.357-.623.595-1.473.892-2.55.892-.99 0-1.784-.297-2.379-.892-.58-.595-.87-1.38-.87-2.358 0-.991.297-1.784.891-2.379.595-.595 1.381-.892 2.359-.892 1.076 0 1.925.297 2.549.892zm12.483 23.049l-4.567 6.733h-6.31l7.18-10.876-6.755-10.451h6.543l3.909 6.309 3.909-6.31h6.542L90.9 24.87l7.18 10.876h-6.309l-4.567-6.733zm23.911 7.158a7.987 7.987 0 01-3.42-.743c-1.048-.51-1.792-1.013-2.231-1.508l-.658-.786V44.88h-5.864V14.418h5.864v2.613a3.06 3.06 0 01.254-.32c.128-.127.383-.36.765-.7a8.22 8.22 0 011.275-.935c.453-.283 1.041-.53 1.763-.743a7.48 7.48 0 012.252-.34c2.761 0 5.154 1.076 7.18 3.229 2.039 2.138 3.059 4.758 3.059 7.86 0 3.101-1.02 5.728-3.059 7.88-2.026 2.139-4.419 3.208-7.18 3.208zm2.612-15.295c-1.005-1.104-2.237-1.656-3.696-1.656-1.444 0-2.676.552-3.696 1.656-1.02 1.091-1.529 2.493-1.529 4.207 0 1.713.509 3.122 1.529 4.227 1.02 1.104 2.252 1.657 3.696 1.657 1.459 0 2.691-.553 3.696-1.657 1.02-1.105 1.53-2.514 1.53-4.227 0-1.714-.51-3.116-1.53-4.207zm30.029 6.161h-15.443c.226 1.161.842 2.145 1.848 2.953 1.005.793 2.273 1.19 3.802 1.19 1.105 0 2.125-.213 3.059-.638.949-.44 1.615-.878 1.997-1.317l.616-.659 3.038 3.909-.383.382c-.184.184-.566.489-1.147.914-.58.425-1.196.807-1.848 1.147-.651.326-1.501.616-2.549.87a13.352 13.352 0 01-3.208.383c-3.129 0-5.799-1.083-8.008-3.25-2.209-2.18-3.314-4.794-3.314-7.838 0-3.045 1.09-5.651 3.271-7.818 2.181-2.18 4.794-3.271 7.839-3.271 3.045 0 5.58 1.02 7.605 3.059 2.025 2.025 3.038 4.56 3.038 7.605l-.213 2.379zm-7.286-6.925c-.85-.737-1.898-1.105-3.144-1.105-1.246 0-2.308.361-3.186 1.084-.864.722-1.473 1.663-1.827 2.825h9.793c-.227-1.133-.772-2.068-1.636-2.804zM159 14.205v5.885c-.439-.142-1.091-.22-1.954-.234-1.544 0-2.769.488-3.675 1.466-.893.977-1.339 2.379-1.339 4.206v10.217h-5.863V14.418h5.863v2.613c.17-.199.411-.454.723-.765.311-.326.991-.75 2.039-1.275a7.445 7.445 0 013.335-.786H159z" fill="currentColor"/><path d="M29.618 0H10.654C9.85 0 9.066.09 8.313.259A10.678 10.678 0 000 10.68h18.964c.804 0 1.587-.089 2.34-.258A10.678 10.678 0 0029.619 0z" fill="#F58599"/><path d="M0 44.875V10.66c0-.804.09-1.588.259-2.342A10.68 10.68 0 0110.68 0v34.216a10.7 10.7 0 01-.258 2.342A10.68 10.68 0 010 44.875z" fill="#EB5555"/><path d="M22.572 16.694H10.647c-.803 0-1.586.09-2.34.26C3.554 18.026 0 22.304 0 27.418h11.925c.804 0 1.586-.09 2.34-.26 4.754-1.074 8.307-5.352 8.307-10.465z" fill="#9871E3"/><path fill-rule="evenodd" clip-rule="evenodd" d="M10.68 16.75V0C5.588 0 1.328 3.56.26 8.325.089 9.079 0 9.863 0 10.669v16.74c.005-5.083 3.567-9.333 8.334-10.4.755-.17 1.54-.259 2.346-.259z" fill="#FFBA4A"/><path d="M.259 8.334C.089 9.089 0 9.874 0 10.68h10.68V0a10.719 10.719 0 00-2.346.259c-4.015.9-7.175 4.06-8.075 8.075z" fill="#F5664A"/><path d="M.259 25.062C.089 25.821 0 26.61 0 27.42h10.68V16.694c-.795 0-1.57.087-2.317.253l-.03.006c-4.014.904-7.174 4.078-8.074 8.11z" fill="#993280"/></svg>