<?xml version="1.0" standalone="no"?>
<!DOCTYPE svg PUBLIC "-//W3C//DTD SVG 20010904//EN"
 "http://www.w3.org/TR/2001/REC-SVG-20010904/DTD/svg10.dtd">
<svg version="1.0" xmlns="http://www.w3.org/2000/svg"
 width="1056.000000pt" height="1056.000000pt" viewBox="0 0 1056.000000 1056.000000"
 preserveAspectRatio="xMidYMid meet">
<metadata>
Created by potrace 1.14, written by Peter Selinger 2001-2017
</metadata>
<g transform="translate(0.000000,1056.000000) scale(0.100000,-0.100000)"
fill="#000000" stroke="none">
<path d="M4330 10556 c0 -2 8 -10 18 -17 15 -13 16 -12 3 4 -13 16 -21 21 -21
13z"/>
<path d="M4392 10548 c2 -7 -3 -12 -11 -10 -9 2 -11 -3 -7 -13 5 -13 2 -14
-15 -4 -11 6 -27 8 -35 5 -9 -3 -12 -1 -9 4 3 6 1 10 -4 10 -6 0 -11 -5 -11
-12 0 -6 -7 -3 -16 8 -8 10 -12 13 -9 6 5 -10 0 -12 -24 -9 -17 3 -31 2 -31
-3 0 -4 -34 -6 -75 -4 -42 1 -75 -2 -75 -7 0 -5 -5 -9 -11 -9 -5 0 -8 4 -4 9
3 5 0 13 -6 17 -8 5 -9 3 -4 -6 6 -10 4 -12 -7 -7 -24 9 -30 -4 -10 -20 10 -9
11 -12 2 -7 -8 4 -23 14 -33 22 -16 14 -17 14 -12 0 4 -9 1 -19 -6 -24 -8 -4
-10 -3 -5 4 4 7 2 12 -4 12 -6 0 -8 5 -5 10 3 6 2 10 -3 10 -6 0 -13 -7 -16
-16 -4 -10 -2 -13 6 -8 6 4 9 3 5 -2 -3 -5 -20 -8 -39 -8 -18 1 -41 -3 -52 -8
-13 -7 -16 -7 -12 1 4 6 2 11 -3 11 -6 0 -11 -5 -11 -11 0 -5 -5 -7 -11 -4 -5
4 -21 8 -35 10 -21 2 -22 0 -12 -13 12 -14 10 -14 -12 -2 -24 13 -24 12 -10
-5 14 -17 14 -18 -7 -6 -13 6 -23 7 -23 2 0 -5 6 -11 12 -13 7 -3 -12 -4 -42
-4 -51 1 -83 -10 -74 -25 2 -3 -8 -4 -23 -1 -15 3 -24 1 -20 -5 3 -5 -4 -9
-16 -8 -12 1 -28 -2 -35 -8 -9 -7 -11 -6 -6 7 3 9 1 16 -5 16 -6 0 -11 -7 -11
-15 0 -9 -7 -18 -15 -21 -8 -4 -12 -10 -9 -16 3 -5 -3 -4 -14 3 -12 7 -18 17
-15 23 3 5 1 6 -6 2 -6 -4 -9 -11 -6 -16 3 -4 -2 -11 -11 -14 -10 -4 -13 -2
-8 7 4 6 -4 2 -17 -10 -18 -17 -28 -20 -36 -12 -8 8 -11 6 -10 -6 1 -12 -6
-19 -20 -20 -12 -1 -20 2 -17 7 3 4 0 8 -5 8 -6 0 -11 -7 -11 -15 0 -9 -6 -12
-17 -8 -12 5 -14 3 -8 -8 7 -12 6 -12 -7 -1 -13 10 -18 10 -30 -1 -7 -7 -20
-11 -28 -9 -13 4 -13 3 -2 -10 10 -13 10 -18 1 -24 -8 -4 -9 -3 -5 4 4 7 1 12
-8 12 -10 0 -13 -6 -9 -17 5 -16 4 -16 -9 0 -13 18 -15 18 -29 1 -11 -15 -12
-16 0 -9 10 6 12 4 7 -4 -5 -7 -11 -10 -14 -7 -3 3 -12 0 -20 -7 -13 -10 -14
-9 -8 1 7 11 4 12 -11 3 -11 -6 -24 -7 -29 -3 -5 4 -1 -3 9 -15 19 -22 7 -27
-22 -9 -11 7 -13 5 -8 -7 3 -9 1 -19 -5 -23 -6 -4 -8 -3 -4 4 3 6 2 13 -2 16
-12 7 -52 -40 -44 -50 4 -4 1 -4 -6 0 -11 6 -11 11 0 24 9 11 5 10 -13 -3 -15
-11 -24 -24 -21 -30 3 -5 -1 -4 -10 3 -13 11 -16 10 -14 -5 1 -14 -6 -18 -30
-18 -21 0 -31 -5 -30 -15 1 -8 -5 -15 -11 -16 -7 -1 -17 -2 -23 -3 -5 0 -10
-6 -10 -12 0 -5 6 -7 13 -3 8 5 9 4 2 -4 -5 -6 -21 -12 -35 -14 -17 -2 -25 -9
-24 -21 2 -14 -1 -15 -12 -6 -11 9 -14 8 -14 -6 0 -14 -3 -15 -14 -5 -13 10
-14 7 -11 -17 2 -15 2 -22 -1 -16 -4 10 -11 9 -28 -2 -12 -8 -26 -12 -30 -8
-4 4 -4 0 0 -10 7 -20 -6 -22 -26 -4 -12 10 -12 9 -1 -5 12 -16 11 -18 -10
-18 -17 0 -20 -3 -11 -9 10 -6 9 -11 -4 -22 -12 -9 -15 -10 -10 -1 4 6 2 12
-3 12 -6 0 -11 -7 -11 -15 0 -9 -7 -18 -15 -21 -8 -3 -17 -14 -20 -25 -4 -10
-11 -19 -18 -19 -8 0 -8 3 1 12 7 7 12 17 12 23 0 5 -5 2 -11 -8 -6 -9 -14
-15 -19 -12 -4 3 -6 -4 -3 -15 3 -12 0 -20 -6 -20 -7 0 -9 5 -5 12 4 7 3 8 -5
4 -9 -6 -9 -11 -1 -21 8 -9 4 -12 -15 -10 -22 3 -24 1 -14 -17 6 -11 7 -18 1
-14 -5 3 -17 -3 -27 -14 -10 -11 -23 -20 -29 -20 -6 0 -4 5 4 11 13 9 13 10 0
6 -9 -2 -14 -15 -13 -33 0 -16 -1 -23 -4 -17 -3 10 -10 10 -24 2 -16 -8 -18
-13 -9 -24 9 -11 7 -13 -14 -9 -21 3 -24 1 -21 -16 2 -11 -1 -23 -7 -26 -7 -4
-8 -2 -4 4 10 17 -3 15 -20 -3 -9 -8 -11 -15 -5 -15 6 0 11 -5 11 -11 0 -6 -6
-9 -14 -6 -21 8 -37 -13 -26 -34 8 -14 6 -16 -10 -12 -15 4 -18 1 -15 -17 4
-18 2 -20 -11 -9 -12 10 -13 9 -7 -6 5 -14 3 -17 -9 -13 -10 4 -15 1 -14 -10
0 -10 -5 -16 -13 -14 -12 3 -12 1 -1 -15 8 -10 11 -15 6 -11 -14 12 -46 -11
-40 -27 4 -8 1 -15 -6 -15 -10 0 -10 -3 0 -15 11 -13 10 -14 -4 -9 -9 3 -16
11 -16 17 0 6 -3 7 -6 4 -4 -4 -1 -13 6 -22 12 -15 11 -16 -11 -19 -7 0 -15
-10 -20 -21 -4 -11 -8 -14 -8 -6 -1 8 -4 12 -7 9 -3 -4 0 -16 6 -28 9 -17 9
-21 0 -15 -7 4 -14 -1 -17 -15 -4 -14 -11 -19 -21 -15 -12 5 -13 3 -2 -10 7
-9 9 -15 4 -13 -5 2 -10 -1 -11 -5 -1 -5 -10 -15 -20 -23 -11 -8 -13 -13 -5
-14 6 0 12 -5 12 -11 0 -5 -4 -7 -10 -4 -9 6 -15 -8 -11 -29 1 -5 -6 -3 -15 5
-10 8 -15 9 -11 2 4 -6 2 -13 -4 -15 -8 -3 -6 -9 4 -20 14 -14 14 -17 2 -22
-8 -3 -17 0 -21 6 -5 7 -2 8 6 3 9 -5 11 -4 6 4 -11 18 -25 3 -18 -21 4 -16 2
-19 -9 -13 -12 7 -12 6 -1 -7 10 -13 9 -16 -9 -21 -17 -5 -20 -9 -11 -19 8
-10 8 -18 0 -28 -8 -13 -9 -13 -5 1 3 9 -1 16 -8 16 -9 0 -10 -8 -4 -30 7 -25
6 -27 -7 -16 -8 6 -17 9 -21 5 -3 -3 -2 -6 4 -6 6 0 14 -7 17 -16 5 -14 4 -15
-8 -5 -12 10 -14 9 -9 -7 2 -11 0 -23 -6 -26 -6 -4 -11 -17 -11 -29 0 -18 -2
-20 -11 -7 -9 12 -10 11 -6 -7 4 -16 0 -23 -10 -23 -8 0 -11 -5 -8 -10 4 -6
12 -7 18 -3 8 5 8 2 0 -9 -7 -8 -9 -18 -5 -22 4 -4 2 -7 -3 -6 -22 5 -27 -1
-15 -15 11 -13 10 -14 -5 -9 -15 6 -16 4 -8 -11 10 -18 -4 -65 -20 -65 -4 0
-3 9 3 20 15 28 5 25 -14 -5 -9 -14 -13 -24 -9 -23 4 2 8 -1 8 -7 0 -5 -3 -9
-6 -8 -3 1 -6 -4 -6 -12 0 -8 4 -12 8 -10 4 3 5 -4 2 -15 -3 -11 -9 -20 -15
-20 -5 0 -3 -10 3 -22 11 -21 11 -22 -4 -10 -13 11 -15 10 -13 -12 2 -18 -2
-26 -12 -26 -13 0 -12 -3 4 -16 10 -8 14 -13 7 -10 -6 4 -14 2 -18 -4 -3 -5 0
-10 7 -11 7 0 4 -4 -7 -9 l-20 -9 20 -1 c18 -1 19 -2 3 -13 -12 -9 -13 -18 -7
-30 8 -13 6 -15 -5 -11 -18 7 -31 -12 -15 -22 8 -5 9 -3 4 6 -5 8 -4 11 3 6 6
-4 9 -13 6 -21 -4 -8 -11 -12 -18 -8 -6 4 -5 -1 3 -10 10 -13 10 -17 1 -17 -7
0 -10 -8 -7 -20 3 -11 1 -20 -4 -20 -5 0 -9 -5 -9 -11 0 -5 5 -7 11 -3 6 3 3
-6 -7 -21 -23 -35 -28 -65 -11 -66 6 0 3 -4 -8 -9 -17 -7 -17 -9 -2 -9 20 -1
22 -12 5 -29 -9 -9 -9 -12 1 -12 7 0 9 -5 6 -10 -4 -6 -11 -7 -17 -4 -6 4 -6
-2 1 -15 9 -16 9 -21 0 -21 -7 0 -5 -8 6 -20 15 -16 15 -20 3 -15 -15 6 -17
-9 -8 -50 4 -19 0 -36 -8 -31 -5 3 -9 -1 -9 -9 0 -8 4 -12 8 -10 4 3 10 -2 13
-11 4 -11 2 -15 -8 -11 -10 4 -13 1 -9 -8 3 -8 9 -12 14 -9 5 3 9 0 9 -5 0
-10 -11 -14 -30 -13 -3 0 -5 -27 -5 -60 0 -33 -4 -62 -8 -65 -5 -3 0 -14 10
-26 10 -11 13 -18 7 -14 -7 4 -10 -31 -10 -108 -1 -79 3 -112 10 -108 8 5 8 3
0 -8 -7 -9 -10 -89 -9 -234 0 -121 -3 -225 -8 -232 -4 -6 -3 -14 3 -18 8 -5 8
-10 0 -20 -6 -8 -7 -16 -2 -19 5 -3 8 -31 6 -61 -2 -42 0 -54 9 -48 9 5 9 3 1
-8 -7 -9 -11 -60 -10 -137 1 -68 -2 -126 -6 -128 -5 -3 -5 -10 -2 -16 13 -20
12 -88 0 -81 -8 5 -8 3 0 -8 5 -8 9 -35 8 -62 -2 -34 1 -45 9 -40 9 5 9 3 0
-8 -6 -8 -10 -33 -9 -57 1 -24 -1 -45 -6 -48 -5 -3 -5 -10 -2 -16 13 -20 12
-88 0 -81 -8 5 -8 3 0 -8 5 -8 9 -35 8 -62 -2 -34 1 -45 9 -40 9 5 9 3 1 -8
-7 -8 -11 -25 -10 -39 1 -14 -2 -30 -6 -37 -5 -6 -5 -14 2 -18 6 -3 7 -11 4
-17 -4 -6 2 -18 12 -26 18 -13 18 -14 -6 -7 -14 3 -20 3 -15 -2 12 -9 14 -73
2 -90 -4 -6 -3 -14 3 -18 6 -4 7 -11 4 -17 -4 -6 2 -18 12 -26 18 -13 18 -14
-6 -7 -14 3 -20 3 -15 -2 12 -9 14 -301 2 -320 -4 -6 -3 -15 3 -18 8 -5 8 -11
0 -20 -6 -8 -7 -16 -2 -19 5 -3 8 -31 6 -61 -2 -42 0 -54 9 -48 9 5 9 3 1 -8
-7 -8 -10 -55 -9 -119 1 -58 -2 -110 -7 -117 -5 -6 -5 -14 2 -18 6 -3 7 -11 4
-17 -4 -6 2 -18 12 -26 18 -13 18 -14 -6 -7 -14 3 -20 3 -14 -2 11 -9 12 -122
1 -140 -4 -7 1 -18 11 -25 10 -7 22 -20 27 -28 6 -12 5 -13 -6 -3 -7 7 -20 13
-28 13 -10 0 -12 -3 -6 -8 12 -8 13 -71 3 -88 -4 -6 -5 -14 -1 -17 12 -12 11
-87 -1 -80 -8 5 -8 3 0 -8 6 -9 10 -81 9 -194 -1 -99 3 -188 8 -199 6 -12 6
-16 -1 -12 -6 4 -10 -19 -9 -62 0 -37 -3 -73 -7 -80 -9 -15 -1 -15 27 -1 19 9
19 8 -3 -11 -14 -12 -19 -19 -13 -15 9 4 11 1 7 -9 -3 -9 -10 -13 -15 -10 -5
3 -6 -5 -1 -18 4 -13 7 -85 6 -160 0 -97 2 -135 10 -131 8 5 8 3 0 -8 -7 -9
-10 -89 -9 -234 0 -121 -3 -225 -8 -232 -4 -6 -3 -14 3 -18 8 -5 8 -10 0 -20
-6 -8 -7 -16 -2 -19 5 -3 8 -31 6 -61 -2 -42 0 -54 9 -48 9 5 9 3 1 -8 -7 -8
-10 -55 -9 -119 1 -58 -2 -110 -7 -117 -5 -6 -5 -14 2 -18 6 -3 7 -11 4 -17
-4 -6 2 -18 12 -26 18 -13 18 -14 -6 -7 -14 3 -20 3 -15 -2 12 -9 14 -73 2
-90 -4 -6 -3 -14 3 -18 6 -4 7 -11 4 -17 -4 -6 2 -18 12 -26 18 -13 18 -14 -6
-7 -14 3 -20 3 -15 -2 12 -9 14 -301 2 -320 -4 -6 -3 -15 3 -18 8 -5 8 -11 0
-20 -6 -8 -7 -16 -2 -19 5 -3 8 -31 6 -61 -2 -42 0 -54 9 -48 9 5 9 3 1 -8 -7
-8 -10 -55 -9 -119 1 -58 -2 -110 -7 -117 -5 -6 -5 -14 2 -18 6 -3 7 -11 4
-17 -4 -6 2 -18 12 -26 18 -13 18 -14 -6 -7 -14 3 -20 3 -15 -2 12 -9 14 -73
2 -90 -4 -6 -3 -14 3 -18 6 -4 7 -11 4 -17 -4 -6 2 -18 12 -26 18 -13 18 -14
-6 -7 -14 3 -20 3 -15 -2 12 -9 14 -73 2 -90 -4 -6 -3 -14 3 -18 6 -4 7 -11 4
-17 -4 -6 2 -18 12 -26 18 -13 18 -14 -6 -7 -14 3 -20 3 -15 -2 12 -9 14 -73
2 -90 -4 -6 -3 -14 3 -18 6 -4 7 -11 4 -17 -4 -6 2 -18 12 -26 18 -13 18 -14
-6 -7 -14 3 -20 3 -15 -2 12 -9 14 -301 2 -320 -4 -6 -3 -15 3 -18 8 -5 8 -11
0 -20 -6 -8 -7 -16 -2 -19 5 -3 8 -31 6 -61 -2 -42 0 -54 9 -48 9 5 9 3 1 -8
-7 -8 -10 -55 -9 -119 1 -58 -2 -110 -7 -117 -5 -6 -5 -14 2 -18 6 -3 7 -11 4
-17 -4 -6 2 -18 12 -26 18 -13 18 -14 -6 -7 -14 3 -20 3 -15 -2 12 -9 14 -73
2 -90 -4 -6 -3 -14 3 -18 6 -4 7 -11 4 -17 -4 -6 2 -18 12 -26 18 -13 18 -14
-6 -7 -14 3 -20 3 -15 -2 7 -5 10 -63 9 -153 0 -92 3 -150 10 -159 8 -11 8
-13 -1 -8 -6 4 -14 3 -17 -2 -4 -5 -2 -13 4 -16 8 -5 8 -11 0 -20 -23 -28 13
-34 176 -31 175 4 202 9 182 35 -11 14 -11 14 3 4 19 -16 91 -14 82 1 -4 6 1
5 10 -3 14 -11 17 -11 17 0 0 9 3 10 8 4 9 -13 52 -15 52 -3 0 6 7 8 15 5 8
-4 17 -1 21 5 4 6 3 8 -4 4 -6 -3 -14 -1 -18 6 -4 7 -4 10 1 6 4 -4 15 -2 23
5 11 8 14 8 9 0 -4 -6 -3 -14 2 -17 5 -3 12 2 15 11 6 15 8 15 16 3 7 -11 10
-11 10 -2 0 10 5 10 21 1 16 -8 20 -8 14 0 -4 8 2 10 19 7 15 -3 24 -1 21 5
-4 5 -11 6 -17 3 -7 -4 -8 -2 -4 4 4 6 14 8 22 5 9 -3 20 0 25 8 5 9 9 9 9 2
0 -15 29 -10 40 6 5 8 10 9 14 3 3 -6 15 -8 27 -5 15 4 17 8 8 14 -8 4 -10 11
-6 15 3 4 12 2 19 -4 9 -7 19 -6 32 4 24 17 40 18 30 2 -5 -7 -3 -8 5 -4 7 5
10 15 6 24 -5 13 -2 13 14 -2 19 -17 19 -17 14 6 -4 18 -3 20 6 8 8 -12 11
-12 11 -1 0 11 3 11 15 1 13 -11 14 -10 9 5 -6 15 -5 16 17 5 21 -12 23 -12
11 2 -10 13 -10 18 -1 24 8 4 9 3 5 -4 -4 -7 -3 -12 3 -12 5 0 13 5 17 11 4 8
9 7 15 -2 6 -10 9 -7 10 11 0 14 3 19 6 13 2 -7 12 -13 21 -13 15 0 15 2 2 10
-13 8 -12 10 3 10 9 0 17 8 18 18 0 14 2 14 7 2 4 -8 13 -16 20 -18 8 -1 11 2
6 9 -5 9 0 10 15 6 19 -5 20 -3 9 11 -11 14 -10 15 6 9 14 -6 17 -4 12 8 -3 8
-1 15 4 15 6 0 10 -4 10 -9 0 -5 11 -8 24 -7 13 0 22 4 20 8 -7 11 35 30 48
22 7 -4 8 -3 4 4 -4 8 0 12 11 12 15 0 16 2 3 10 -15 10 -12 11 23 14 6 1 18
8 25 16 8 8 11 10 8 3 -4 -6 -2 -15 4 -18 6 -4 10 -3 9 2 -1 4 -1 17 0 28 l2
20 16 -20 c11 -14 14 -15 10 -3 -8 22 3 30 20 16 8 -6 13 -7 12 -2 -5 26 2 43
16 38 16 -6 45 17 45 36 0 6 5 8 10 5 6 -4 7 -12 4 -18 -4 -7 -3 -8 2 -4 5 5
9 14 9 19 0 6 6 13 13 16 8 2 10 -3 6 -15 -5 -14 -4 -15 4 -3 7 9 7 19 2 25
-7 8 -3 11 13 11 12 -1 22 4 21 9 -1 6 7 18 17 27 21 20 26 10 7 -11 -11 -11
-9 -11 10 -1 15 7 21 17 18 26 -3 9 -1 12 4 9 6 -3 10 -1 10 5 0 7 7 10 15 6
8 -3 15 -1 15 3 0 5 -6 12 -12 14 -8 4 -7 6 4 6 9 1 18 4 21 9 2 4 3 2 1 -4
-1 -6 4 -11 11 -11 7 0 11 6 8 14 -3 7 0 13 7 13 10 0 10 3 0 15 -10 12 -7 13
17 6 26 -8 29 -6 29 13 -1 14 6 22 22 24 12 2 22 8 22 13 0 6 -6 7 -12 3 -9
-6 -9 -3 0 9 8 9 19 15 25 14 7 -1 11 6 11 15 -1 10 1 17 5 16 20 -2 31 3 25
14 -5 8 -2 9 9 5 11 -4 17 -1 17 9 0 9 -5 12 -12 8 -6 -4 -8 -3 -4 4 3 6 16 9
27 7 16 -3 19 0 14 13 -3 9 -3 14 0 10 8 -8 51 34 47 45 -1 4 9 12 23 17 14 5
25 16 25 25 0 8 6 15 14 15 7 0 20 8 27 18 12 15 12 16 -2 5 -13 -10 -16 -10
-16 1 0 9 9 13 24 11 19 -2 21 0 12 11 -9 11 -8 14 1 14 7 0 10 7 6 16 -3 8
-2 12 4 9 6 -3 10 -1 10 6 0 6 8 9 20 6 11 -3 18 -2 15 3 -3 4 2 13 10 20 11
9 12 17 3 34 -6 11 -7 18 -3 14 12 -11 36 12 28 26 -4 6 1 5 10 -3 15 -12 17
-12 11 4 -6 14 -4 16 6 10 10 -6 12 -4 7 9 -6 14 -3 17 9 12 13 -5 14 -3 6 6
-7 9 -6 19 4 32 8 11 14 15 14 10 0 -6 -6 -16 -13 -24 -10 -12 -9 -12 6 -1 9
7 17 22 17 33 0 10 4 17 9 13 6 -3 8 3 6 15 -4 20 14 24 27 6 3 -5 5 7 3 27
-2 25 0 35 7 30 8 -4 9 0 4 12 -6 16 -4 16 10 4 15 -12 16 -11 9 10 -6 19 -4
23 8 18 11 -4 14 2 12 24 -2 22 0 27 10 19 12 -10 13 -7 17 46 2 24 3 25 16 7
12 -14 13 -14 9 -2 -3 9 0 22 6 29 10 10 8 12 -6 7 -12 -4 -16 -3 -11 4 3 6
15 9 25 6 11 -3 17 -1 14 3 -3 5 3 16 12 26 17 17 17 18 1 11 -12 -4 -18 -2
-18 8 0 8 8 15 18 15 13 0 14 2 3 9 -11 7 -11 9 0 14 12 5 11 8 -1 17 -12 9
-11 10 6 6 15 -5 21 -2 21 11 0 10 -4 24 -10 31 -7 9 -5 11 8 6 14 -6 16 -4
10 6 -6 10 -4 12 8 7 11 -4 14 -2 10 9 -3 8 0 21 7 29 9 11 9 15 1 15 -7 0 -9
5 -6 10 4 6 11 8 16 5 5 -4 6 2 2 12 -6 16 -5 17 13 3 17 -13 18 -13 7 0 -7
10 -9 21 -3 30 5 9 5 19 -1 26 -7 8 -6 14 1 19 6 3 8 10 5 15 -3 5 0 12 6 16
8 5 9 3 4 -7 -8 -12 -6 -12 8 0 19 15 23 26 6 15 -7 -4 -10 -1 -7 7 3 8 9 13
14 12 5 -1 10 10 10 23 1 13 -1 22 -5 20 -3 -2 -6 6 -6 19 0 13 3 21 8 18 4
-2 7 1 7 8 0 8 5 7 18 -2 15 -13 16 -12 4 3 -10 13 -10 17 0 22 7 3 2 3 -12 0
l-25 -7 25 21 c21 18 23 23 10 32 -10 6 -11 10 -3 10 8 0 11 11 9 30 -2 16 0
27 4 25 9 -5 36 34 35 50 0 6 -6 20 -13 33 -7 12 -9 22 -5 21 20 -3 27 2 13
11 -12 8 -12 10 -1 10 11 0 11 3 0 17 -10 11 -10 14 -1 9 7 -4 12 -1 12 8 0 9
5 16 12 16 6 0 8 3 5 6 -4 4 -15 1 -24 -7 -16 -12 -17 -12 -6 2 10 12 10 18 1
27 -9 9 -9 12 1 12 8 0 10 7 6 23 -7 22 -7 22 9 2 15 -19 16 -19 9 -1 -4 13
-3 17 5 12 8 -5 10 -2 6 8 -3 9 -11 13 -18 9 -6 -4 -5 1 2 10 8 9 11 21 7 27
-3 5 -1 10 6 10 8 0 6 7 -5 19 -15 17 -15 19 -1 25 11 4 14 2 9 -6 -4 -7 -3
-8 4 -4 9 5 8 13 -3 30 -13 20 -13 25 2 46 9 13 12 20 6 17 -7 -5 -11 7 -10
33 1 22 5 40 10 40 4 0 5 5 2 10 -4 6 -12 7 -18 4 -8 -5 -8 -3 1 7 14 16 16
33 2 24 -6 -3 -10 -1 -10 4 0 6 8 11 18 11 10 0 13 3 7 8 -16 10 -17 54 -2 45
7 -4 6 0 -2 10 -11 14 -11 20 0 34 12 14 12 16 0 8 -11 -6 -13 -4 -8 8 3 9 2
19 -4 23 -6 4 -4 15 6 31 10 15 12 22 4 18 -9 -6 -11 -2 -7 12 3 11 1 28 -5
38 -6 12 -6 16 1 11 11 -6 9 55 -3 74 -4 6 -3 10 2 9 20 -3 27 2 13 11 -12 8
-13 13 -2 30 6 11 12 23 12 27 0 5 -4 2 -9 -6 -6 -10 -9 -2 -9 23 0 20 5 36
12 36 6 0 6 4 -3 9 -7 5 -11 13 -7 19 3 6 2 13 -4 17 -6 4 -7 13 -2 23 4 9 7
32 6 49 -1 20 3 33 9 33 7 0 4 5 -6 11 -17 10 -17 12 -2 36 10 15 12 22 4 18
-9 -6 -11 -2 -7 12 3 11 1 28 -5 38 -6 12 -6 16 1 11 11 -6 9 55 -3 74 -4 6
-3 10 2 9 20 -3 27 2 13 11 -13 8 -13 13 -2 31 8 11 9 18 4 15 -6 -3 -13 1
-16 10 -3 8 -2 13 3 10 10 -7 6 57 -4 74 -4 6 -3 10 2 9 20 -3 27 2 13 11 -12
8 -13 13 -2 30 6 11 12 23 12 27 0 5 -4 2 -9 -6 -6 -10 -9 -2 -9 23 0 20 5 36
12 36 6 0 6 4 -3 9 -7 5 -11 13 -7 19 3 6 2 13 -4 17 -6 4 -7 13 -1 23 4 9 6
23 4 30 -3 7 1 20 9 29 11 14 11 16 -1 8 -11 -6 -13 -4 -8 7 3 9 1 20 -5 26
-6 6 -6 12 3 17 8 6 10 4 4 -5 -5 -9 -4 -11 4 -6 9 6 9 11 -1 24 -11 13 -10
15 14 10 16 -3 25 -1 21 5 -3 5 4 6 18 2 39 -13 143 -7 168 9 10 6 12 5 7 -2
-4 -7 -3 -12 3 -12 5 0 13 5 16 10 3 6 11 10 17 10 6 0 5 -7 -3 -17 -12 -16
-12 -17 2 -6 9 7 20 9 24 5 5 -4 5 1 2 10 -4 12 -2 15 8 11 8 -3 12 -10 8 -17
-4 -6 1 -5 10 3 12 9 21 10 30 3 8 -7 17 -7 29 2 10 7 16 15 14 17 -3 2 7 5
20 5 13 1 24 -3 24 -10 0 -7 4 -6 9 2 4 8 19 12 32 10 13 -2 30 4 37 12 12 13
13 12 8 -5 -6 -19 -5 -19 8 -2 10 14 15 15 19 5 4 -9 6 -7 6 4 1 9 6 20 13 24
7 4 8 3 4 -4 -9 -15 7 -15 22 0 8 8 15 8 25 -1 11 -9 17 -8 26 2 6 8 7 18 3
22 -4 5 -2 5 5 1 7 -4 11 -12 9 -19 -1 -7 -1 -9 1 -4 3 4 9 5 13 2 5 -3 12 0
16 6 4 8 3 9 -4 5 -7 -4 -12 -2 -12 3 0 15 13 14 29 -2 11 -9 13 -9 7 0 -5 9
1 13 19 13 18 0 24 4 19 13 -6 9 -5 9 8 0 18 -15 29 -7 22 15 -3 10 2 6 10 -8
8 -14 15 -19 16 -12 0 7 5 10 12 6 7 -4 8 -3 4 5 -4 6 -13 8 -19 5 -7 -4 -9
-3 -4 1 4 5 18 10 30 12 33 5 77 24 73 32 -3 4 4 8 15 8 10 1 19 -3 19 -10 0
-6 7 -2 16 9 8 10 13 13 9 7 -3 -7 -1 -13 4 -13 6 0 11 5 11 11 0 8 6 7 17 -2
15 -13 15 -12 3 11 -10 20 -10 23 0 13 11 -10 16 -9 26 5 12 16 13 16 14 -3 0
-18 2 -17 13 5 8 15 20 24 31 22 11 -2 15 1 11 8 -3 6 -3 10 2 9 4 -1 11 0 16
1 15 5 27 8 43 9 8 0 13 5 10 10 -3 5 1 11 9 15 8 3 17 1 20 -5 9 -13 27 0 22
16 -4 8 5 12 26 12 24 -1 32 3 31 15 -1 11 4 14 14 11 10 -4 13 -2 8 5 -5 8
-1 10 10 5 13 -5 15 -3 9 7 -6 10 -4 11 6 4 16 -10 44 -15 35 -7 -3 4 0 13 6
22 8 9 3 8 -10 -3 -16 -14 -21 -15 -17 -5 3 8 15 20 26 27 12 8 18 9 15 3 -4
-5 2 -9 13 -8 16 1 18 5 9 20 -9 17 -7 17 13 7 19 -11 21 -10 15 5 -5 15 -4
16 9 5 9 -7 18 -10 22 -6 3 3 1 6 -5 6 -7 0 -12 5 -12 12 0 6 3 9 6 5 4 -3 14
2 23 11 9 10 12 13 8 6 -5 -7 -3 -15 4 -20 8 -4 9 -3 5 4 -4 7 -3 12 3 12 5 0
13 9 16 21 5 14 13 19 26 16 10 -3 22 -1 25 4 3 5 10 6 16 3 7 -4 8 -2 4 5 -6
9 -12 9 -24 -1 -15 -12 -16 -11 -3 5 7 9 19 17 26 17 7 0 16 7 19 16 4 10 12
14 22 10 15 -6 15 -4 3 11 -9 10 -9 14 -2 9 7 -4 25 0 40 9 27 15 27 16 3 10
-22 -4 -21 -3 5 10 17 8 26 14 21 15 -6 0 4 11 22 23 17 13 28 27 24 31 -4 4
-2 7 3 6 23 -5 36 1 29 13 -5 7 0 6 11 -3 17 -14 18 -14 6 7 -11 22 -10 22 14
13 24 -9 25 -8 15 10 -6 11 -7 19 -3 19 11 -3 63 19 63 26 0 4 -4 3 -10 0 -5
-3 -10 1 -10 10 0 13 4 14 20 5 16 -9 20 -8 20 5 0 10 -5 13 -12 9 -9 -5 -9
-2 1 9 15 18 26 23 16 7 -3 -5 -1 -10 4 -10 6 0 12 5 12 10 1 6 2 16 3 23 0 6
11 16 23 22 13 5 25 16 28 24 5 12 3 12 -12 0 -16 -13 -17 -12 -4 4 11 13 17
15 28 6 11 -10 12 -8 6 6 -5 14 -3 17 10 12 12 -4 15 -1 12 14 -5 27 14 47 40
42 11 -2 14 -1 8 3 -19 8 -16 27 3 20 10 -4 13 -2 7 7 -11 18 -13 38 -2 31 5
-3 7 -10 4 -15 -4 -5 -1 -9 4 -9 6 0 11 7 11 16 0 9 5 12 13 8 9 -6 9 -5 0 7
-15 19 2 40 25 32 10 -4 13 -2 8 5 -4 7 -2 12 3 12 6 0 11 4 11 10 0 5 -8 7
-17 4 -14 -5 -15 -4 -4 4 7 5 18 16 23 23 8 11 9 10 4 -3 -3 -10 0 -20 6 -24
6 -4 8 -3 4 4 -3 6 -2 13 3 17 6 3 8 11 6 18 -6 16 5 30 35 45 14 7 17 10 8 8
-12 -3 -15 -1 -11 9 3 8 9 12 14 9 5 -3 9 2 9 10 0 9 5 16 11 16 5 0 7 5 3 12
-5 8 -2 9 10 5 12 -5 15 -3 9 5 -10 17 -11 48 -1 42 4 -3 8 0 8 5 0 6 5 11 12
11 9 0 9 -3 0 -12 -7 -7 -12 -17 -12 -23 1 -12 24 25 25 40 1 6 6 9 12 8 8 -2
9 7 3 27 -5 17 -6 31 -2 31 4 1 14 2 22 3 8 0 14 9 14 19 -1 9 2 17 7 17 4 0
6 9 4 20 -2 11 1 19 8 17 7 -1 11 6 9 17 -2 12 1 16 9 10 9 -5 11 -1 7 14 -5
16 -2 19 11 15 9 -4 13 -2 8 2 -4 5 0 19 9 33 8 13 13 30 10 37 -2 7 2 16 11
19 9 4 13 14 10 26 -3 10 2 27 10 37 13 16 13 16 3 -7 -10 -24 -10 -24 4 -6
13 16 13 22 3 35 -10 12 -9 14 5 8 10 -3 20 -2 23 4 4 5 1 8 -6 7 -6 -2 -14 3
-17 11 -3 8 0 11 7 7 6 -4 11 0 11 9 0 10 5 13 13 9 8 -5 8 -2 -2 9 -12 15 -9
21 11 18 4 0 5 6 2 14 -4 8 -11 12 -17 8 -6 -3 -7 -1 -3 6 5 7 17 9 29 5 21
-6 20 -5 -3 16 l-25 22 30 -7 c21 -5 26 -4 16 3 -8 6 -15 22 -16 36 0 21 2 23
15 13 8 -6 12 -7 7 -2 -4 4 0 19 9 33 9 13 11 22 6 18 -6 -4 -10 2 -9 14 1 12
6 19 14 15 10 -3 11 0 4 14 -7 12 -6 22 2 31 7 7 8 10 2 7 -5 -3 -10 5 -10 18
0 13 3 21 8 18 4 -2 7 1 7 7 0 6 5 8 13 4 7 -5 6 0 -3 11 -8 10 -10 16 -4 12
7 -4 14 2 17 14 4 16 2 19 -11 14 -11 -4 -9 3 8 22 14 15 18 22 9 15 -13 -10
-15 -8 -14 8 1 11 5 23 10 27 4 5 5 2 0 -6 -5 -10 -4 -12 4 -7 6 4 9 11 6 16
-3 4 1 11 7 14 9 3 8 5 -2 3 -8 -1 -15 3 -15 8 0 6 6 9 13 8 7 0 11 2 8 5 -3
3 -1 11 5 18 9 10 7 15 -5 20 -9 3 -16 10 -16 16 0 5 5 6 10 3 6 -3 10 -1 10
5 0 6 4 8 10 5 5 -3 7 0 4 9 -3 8 -13 12 -22 10 -15 -5 -15 -4 -2 8 10 8 15
29 15 53 -1 22 4 43 9 47 7 5 6 8 -3 8 -10 0 -11 3 -2 14 8 10 9 16 1 21 -5 3
-10 12 -10 18 0 7 4 6 10 -3 8 -13 10 -13 10 2 0 9 -4 19 -10 23 -5 3 -7 12
-4 20 4 8 10 12 15 9 5 -3 6 2 3 10 -3 9 -9 14 -13 11 -4 -2 -8 2 -8 10 0 18
9 19 27 3 12 -11 12 -10 0 5 -12 16 -12 20 1 28 8 5 9 9 3 9 -5 0 -16 -6 -24
-12 -8 -7 -11 -9 -7 -4 4 5 1 16 -6 24 -9 13 -9 14 0 8 8 -4 11 -2 7 7 -2 7
-11 14 -19 14 -8 0 -12 -3 -10 -7 2 -4 -2 -7 -10 -7 -8 0 -12 4 -9 8 2 4 -5 7
-16 6 -11 -1 -20 -5 -20 -10 0 -5 -8 -3 -17 4 -9 8 -14 9 -11 4 8 -13 -73 -12
-94 1 -10 6 -10 4 1 -9 12 -15 12 -17 -3 -11 -9 3 -16 10 -16 15 0 5 -5 9 -11
9 -5 0 -8 -4 -5 -8 3 -5 -1 -9 -9 -9 -8 0 -15 4 -15 9 0 4 -5 8 -11 8 -5 0 -8
-4 -5 -8 3 -5 -1 -9 -9 -9 -8 0 -15 4 -15 9 0 4 -5 8 -11 8 -5 0 -8 -3 -6 -7
3 -5 -17 -8 -44 -8 -27 0 -49 3 -49 6 0 3 -7 6 -15 6 -8 0 -15 -5 -15 -10 0
-5 -8 -3 -17 4 -11 9 -14 10 -9 2 5 -9 2 -11 -8 -7 -9 3 -13 11 -10 18 3 6 0
4 -8 -4 -22 -25 -40 -24 -33 2 5 20 4 21 -5 5 -6 -9 -15 -15 -21 -12 -5 4 -9
1 -9 -6 0 -8 -5 -7 -17 2 -9 8 -14 9 -11 4 8 -13 -73 -12 -94 1 -10 6 -10 4 1
-9 12 -15 12 -17 -3 -11 -9 3 -16 10 -16 15 0 5 -5 9 -11 9 -5 0 -8 -4 -5 -8
3 -5 -1 -9 -9 -9 -8 0 -15 4 -15 9 0 4 -5 8 -11 8 -5 0 -8 -4 -5 -8 3 -5 -1
-9 -9 -9 -8 0 -15 4 -15 9 0 4 -5 8 -11 8 -5 0 -8 -3 -6 -7 3 -5 -17 -8 -44
-8 -27 0 -49 3 -49 6 0 3 -7 6 -15 6 -8 0 -15 -5 -15 -10 0 -5 -8 -3 -17 4 -9
8 -14 10 -11 4 4 -6 -8 -10 -28 -10 -29 -1 -33 2 -29 20 5 18 5 18 -5 2 -6 -9
-15 -15 -21 -12 -5 4 -9 1 -9 -6 0 -8 -5 -7 -17 2 -9 8 -14 9 -11 4 8 -13 -73
-12 -94 1 -10 6 -10 4 1 -9 12 -15 12 -17 -3 -11 -9 3 -16 10 -16 15 0 5 -5 9
-11 9 -5 0 -8 -4 -5 -8 3 -5 -1 -9 -9 -9 -8 0 -15 4 -15 9 0 4 -5 8 -11 8 -5
0 -8 -4 -5 -8 3 -5 -1 -9 -9 -9 -8 0 -15 4 -15 9 0 4 -5 8 -11 8 -5 0 -8 -3
-6 -7 3 -5 -17 -8 -44 -8 -27 0 -49 3 -49 6 0 3 -7 6 -15 6 -8 0 -15 -5 -15
-10 0 -5 -8 -3 -17 4 -11 9 -14 10 -9 2 5 -9 2 -11 -8 -7 -9 3 -13 11 -10 18
3 6 0 4 -8 -4 -22 -25 -40 -24 -33 2 5 20 4 21 -5 5 -6 -9 -15 -15 -21 -12 -5
4 -9 1 -9 -6 0 -8 -5 -7 -17 2 -9 8 -14 9 -11 4 8 -13 -73 -12 -94 1 -10 6
-10 4 1 -9 12 -15 12 -17 -3 -11 -9 3 -16 10 -16 15 0 5 -5 9 -11 9 -5 0 -8
-4 -5 -8 3 -5 -1 -9 -9 -9 -8 0 -15 4 -15 9 0 4 -5 8 -11 8 -5 0 -8 -4 -5 -8
3 -5 -1 -9 -9 -9 -8 0 -15 4 -15 9 0 4 -5 8 -11 8 -5 0 -8 -3 -6 -7 3 -5 -17
-8 -44 -8 -27 0 -49 3 -49 6 0 3 -7 6 -15 6 -8 0 -15 -5 -15 -10 0 -5 -8 -3
-17 4 -9 8 -14 10 -11 4 4 -6 -8 -10 -28 -10 -29 -1 -33 2 -29 20 5 18 5 18
-5 2 -6 -9 -15 -15 -21 -12 -5 4 -9 1 -9 -6 0 -8 -5 -7 -17 2 -9 8 -14 9 -11
4 8 -13 -73 -12 -94 1 -10 6 -10 4 1 -9 12 -15 12 -17 -3 -11 -9 3 -16 10 -16
15 0 5 -5 9 -11 9 -5 0 -8 -4 -5 -8 3 -5 -1 -9 -9 -9 -8 0 -15 4 -15 9 0 4 -5
8 -11 8 -5 0 -8 -4 -5 -8 3 -5 -1 -9 -9 -9 -8 0 -15 4 -15 9 0 4 -5 8 -11 8
-5 0 -8 -3 -6 -7 3 -5 -17 -8 -44 -8 -27 0 -49 3 -49 6 0 3 -7 6 -15 6 -8 0
-15 -5 -15 -10 0 -5 -8 -3 -17 4 -11 9 -14 10 -9 2 5 -9 2 -11 -8 -7 -9 3 -13
11 -10 18 3 6 0 4 -8 -4 -22 -25 -40 -24 -33 2 7 22 6 22 -7 4 -8 -10 -20 -16
-26 -12 -6 3 -13 2 -17 -3 -3 -7 -15 -7 -29 -1 -13 5 -27 6 -30 2 -11 -11 -46
-12 -46 -1 0 5 -4 8 -8 5 -5 -3 -9 1 -9 9 0 8 5 11 11 8 6 -4 3 2 -6 13 -16
19 -16 22 -1 44 10 15 12 20 3 15 -10 -6 -12 -3 -8 12 3 11 1 28 -5 38 -6 12
-6 16 1 11 11 -6 9 55 -3 74 -4 6 -3 10 2 9 20 -3 27 2 13 11 -12 8 -13 13 -2
30 6 11 12 23 12 27 0 5 -4 2 -9 -6 -6 -10 -9 -2 -9 23 0 20 5 36 12 36 6 0 6
4 -3 9 -7 5 -11 13 -7 19 3 6 2 13 -4 17 -6 4 -7 13 -2 23 4 9 7 32 6 50 -1
19 3 32 9 32 7 0 4 5 -6 11 -17 10 -17 12 -2 36 10 15 12 22 4 18 -9 -6 -11
-2 -7 12 3 11 1 28 -5 38 -6 12 -6 16 1 11 11 -6 9 55 -3 74 -4 6 -3 10 2 9
20 -3 27 2 13 11 -13 8 -13 13 -2 31 8 11 9 18 4 15 -6 -3 -13 1 -16 10 -3 8
-2 13 3 10 10 -7 6 57 -4 74 -4 6 -3 10 2 9 20 -3 27 2 13 11 -12 8 -13 13 -2
30 6 11 12 23 12 27 0 5 -4 2 -9 -6 -6 -10 -9 -2 -9 23 0 20 5 36 12 36 6 0 6
4 -3 9 -7 5 -11 13 -7 19 3 6 2 13 -4 17 -6 4 -7 13 -2 23 4 9 7 32 6 50 -1
19 3 32 9 32 7 0 4 5 -6 11 -17 10 -17 12 -2 36 10 14 12 23 7 19 -15 -9 -12
57 2 66 8 5 7 8 -1 8 -7 0 -13 5 -13 11 0 6 7 8 16 5 8 -3 12 -2 9 3 -3 5 -1
12 5 16 5 3 10 1 10 -6 0 -10 3 -10 12 -1 17 17 33 15 18 -3 -7 -9 -10 -18 -6
-22 3 -3 6 -1 6 5 0 7 7 12 16 12 8 0 13 4 10 8 -3 5 1 9 9 9 8 0 15 -7 16
-16 0 -12 3 -10 8 4 8 19 8 19 15 -3 l8 -23 19 22 c14 16 22 19 32 11 19 -16
66 -22 73 -10 4 7 2 8 -4 4 -7 -4 -12 -2 -12 3 0 15 4 14 43 -8 26 -14 34 -16
34 -5 0 7 -3 11 -7 9 -3 -2 -12 0 -19 5 -9 5 -2 7 18 6 20 0 31 -6 32 -16 0
-10 3 -8 8 5 8 19 8 19 16 -4 5 -16 10 -20 15 -12 4 7 20 13 36 15 16 1 35 6
43 11 11 6 13 4 7 -10 -6 -18 -6 -18 15 1 12 10 19 13 15 7 -8 -15 10 -18 19
-3 3 6 11 10 17 10 6 0 6 -6 -2 -15 -7 -9 -10 -18 -6 -22 3 -3 6 -1 6 5 0 7 7
12 16 12 8 0 13 4 10 8 -3 5 1 9 9 9 8 0 15 -7 16 -16 0 -12 3 -10 8 4 8 19 8
19 15 -3 l8 -23 19 22 c14 16 22 19 32 11 19 -16 66 -22 73 -10 4 7 2 8 -4 4
-7 -4 -12 -2 -12 3 0 14 2 14 36 -3 15 -9 34 -12 43 -7 9 4 23 7 31 6 8 -1 21
4 29 9 12 9 13 7 8 -8 -6 -16 -5 -17 8 -6 21 17 73 24 56 7 -6 -6 -11 -16 -11
-21 0 -6 4 -5 8 2 5 7 24 13 43 15 19 2 41 7 48 12 11 6 13 4 7 -10 -5 -15 -4
-16 9 -5 21 17 73 24 56 7 -6 -6 -11 -16 -11 -21 0 -6 4 -5 8 2 5 7 24 13 43
15 19 2 41 7 48 12 11 6 13 4 7 -10 -5 -15 -4 -16 9 -5 21 17 73 24 56 7 -6
-6 -11 -16 -11 -21 0 -6 4 -5 8 2 5 7 24 13 43 15 19 2 41 7 48 12 11 6 13 4
7 -10 -5 -15 -4 -16 9 -5 21 17 73 24 56 7 -6 -6 -11 -16 -11 -21 0 -6 4 -5 8
2 5 7 24 13 43 15 19 2 41 7 48 12 11 6 13 4 7 -10 -5 -15 -4 -16 9 -5 21 17
73 24 56 7 -6 -6 -11 -16 -11 -21 0 -6 4 -5 8 2 5 7 24 13 43 15 19 2 41 7 48
12 11 6 13 4 7 -10 -5 -15 -4 -16 9 -5 21 17 73 24 56 7 -6 -6 -11 -16 -11
-21 0 -6 4 -5 9 2 5 9 32 15 69 16 34 2 68 9 77 16 13 11 14 10 9 -4 -5 -14
-2 -15 17 -8 13 5 30 7 38 4 8 -3 11 0 7 6 -6 10 37 7 55 -3 7 -5 23 25 20 38
-1 5 3 6 9 2 7 -4 7 -13 -1 -27 -9 -16 -8 -19 3 -12 7 5 16 9 20 9 3 0 10 4
15 9 5 5 2 6 -6 1 -10 -6 -12 -4 -7 4 6 9 14 8 33 -4 24 -16 24 -16 13 5 -10
18 -10 21 2 14 19 -12 38 -14 38 -3 0 5 5 9 11 9 5 0 8 -4 4 -9 -3 -5 0 -13 6
-17 8 -4 9 -3 5 4 -4 7 -2 12 4 12 6 0 9 4 6 9 -3 5 2 15 12 22 15 13 16 12 3
-3 -9 -13 -10 -18 -2 -18 7 0 9 -6 6 -12 -4 -7 0 -5 8 5 8 9 20 17 26 17 7 0
9 4 6 10 -3 6 1 7 9 4 9 -3 13 -11 10 -18 -3 -6 0 -4 8 4 7 8 19 16 27 18 12
3 12 1 0 -15 -13 -17 -13 -17 6 -2 11 9 26 14 34 11 10 -3 11 0 5 9 -6 11 -5
12 7 2 12 -10 18 -10 27 -1 7 7 12 9 12 4 0 -4 10 1 23 11 14 11 39 18 64 17
26 0 40 4 40 12 0 9 -6 10 -17 4 -12 -6 -17 -5 -17 4 0 8 10 12 24 10 34 -3
78 11 75 25 -1 7 2 9 8 6 6 -4 9 -13 6 -21 -3 -7 0 -16 6 -20 6 -4 9 -3 6 2
-3 5 -2 20 3 33 8 19 12 21 24 11 12 -10 15 -10 15 1 0 11 2 11 9 1 6 -10 11
-9 22 4 9 12 10 15 2 10 -7 -4 -13 -2 -13 3 0 6 11 11 24 11 13 0 27 6 29 13
4 10 6 10 6 0 1 -7 6 -13 12 -13 6 0 9 7 6 14 -4 10 -1 13 9 9 7 -3 14 -1 14
5 0 5 7 13 16 16 8 3 13 2 9 -3 -3 -5 2 -8 11 -7 8 1 20 9 25 17 5 8 9 10 9 5
0 -5 7 -3 15 4 8 7 12 17 9 22 -4 6 3 5 14 -1 18 -9 20 -8 17 6 -2 14 5 19 29
20 54 4 56 5 46 23 -7 13 -4 16 20 14 17 -1 35 5 42 15 12 14 11 15 -7 2 -19
-14 -19 -14 -3 4 14 15 20 16 32 6 13 -11 14 -8 11 21 -2 18 -1 27 2 20 2 -6
9 -10 14 -7 5 4 6 -2 3 -12 -5 -15 -4 -15 5 -3 6 8 16 16 23 16 7 1 17 2 22 3
5 0 2 9 -5 18 -10 11 -10 14 -1 9 7 -4 12 -1 12 9 0 9 4 14 9 10 17 -10 62 17
56 34 -5 13 -4 13 6 4 10 -10 16 -9 31 4 10 9 18 23 18 32 0 14 2 14 10 1 9
-13 10 -13 11 0 1 8 1 19 0 24 -1 5 6 3 15 -5 12 -9 15 -9 10 -1 -4 7 -2 12 7
12 7 0 24 12 38 27 13 14 17 22 9 18 -10 -6 -9 -2 3 13 10 11 27 19 37 17 14
-3 17 1 13 12 -5 13 -2 15 15 11 15 -4 19 -2 15 8 -3 9 2 14 13 14 16 0 17 2
4 10 -12 8 -10 10 9 10 21 0 22 2 10 17 -13 15 -12 15 8 5 19 -11 21 -9 18 13
-2 19 1 23 10 15 10 -8 15 -8 21 1 4 8 3 9 -4 5 -7 -4 -12 -3 -12 2 0 15 28
22 34 9 4 -7 4 -2 2 9 -2 12 0 28 5 35 5 9 9 10 9 3 0 -7 7 -14 15 -18 13 -4
14 -2 5 14 -11 20 -4 24 40 21 10 0 11 1 2 5 -6 3 -9 11 -5 17 4 7 -2 5 -13
-3 -18 -14 -18 -14 -5 3 7 9 21 17 30 17 14 0 14 2 1 10 -13 8 -12 10 3 10 9
0 17 5 17 11 0 5 4 8 9 4 5 -3 13 0 17 6 4 8 3 9 -4 5 -7 -4 -12 -1 -12 9 0 9
5 13 10 10 6 -3 10 -1 10 5 0 6 5 8 11 4 8 -4 9 1 4 17 -7 20 -6 22 6 12 10
-8 19 -9 29 -1 12 8 12 9 -2 4 -10 -3 -18 -1 -18 4 0 6 5 10 11 10 6 0 9 7 5
15 -3 8 -1 15 3 15 5 0 12 -6 14 -12 4 -10 6 -10 6 0 1 7 7 10 14 7 6 -4 3 1
-7 9 -18 15 -19 16 -2 16 11 0 16 5 13 14 -8 21 3 27 27 14 18 -10 19 -9 9 3
-10 12 -7 19 16 38 18 15 27 30 24 41 -3 10 1 21 8 25 8 6 10 4 4 -6 -7 -12
-6 -12 7 -1 9 7 14 21 11 32 -6 23 6 26 27 8 12 -11 12 -10 2 3 -9 12 -9 19 1
29 10 10 9 12 -3 6 -8 -4 -6 -1 4 8 10 8 22 14 25 12 3 -2 7 9 8 25 1 16 9 37
18 46 9 8 14 22 11 29 -3 7 4 16 15 19 20 7 20 7 2 21 -16 13 -15 13 12 4 28
-11 28 -10 12 8 -9 10 -14 22 -10 26 5 4 8 13 8 19 0 7 6 13 13 13 6 1 16 2
21 3 6 0 9 10 8 20 0 11 -6 17 -12 13 -5 -3 -4 1 2 10 7 8 10 17 7 20 -3 3 6
15 20 26 29 22 34 34 11 26 -8 -4 -15 -3 -15 0 0 4 12 11 26 16 14 6 23 14 20
19 -4 5 0 12 6 15 7 3 2 4 -12 1 -14 -3 -19 -2 -12 1 6 3 10 10 7 14 -3 5 5 7
17 5 20 -4 21 -3 7 8 -13 10 -14 15 -4 24 7 7 15 10 17 7 3 -2 5 3 5 11 0 9
-6 14 -14 11 -8 -3 -11 -1 -8 4 3 6 13 10 21 10 8 0 12 5 9 10 -4 6 -1 18 7
27 8 10 8 14 1 10 -13 -8 -12 38 2 51 4 4 5 1 1 -5 -4 -7 -2 -13 4 -13 6 0 9
-4 5 -9 -3 -5 -1 -12 3 -15 11 -6 10 34 -1 51 -4 6 -2 15 4 19 8 4 9 3 5 -4
-11 -18 0 -14 15 5 12 14 12 15 0 9 -10 -7 -11 -3 -6 15 7 20 5 22 -7 14 -7
-6 -6 -2 4 7 18 16 18 17 1 27 -16 9 -15 10 6 8 24 -2 25 0 25 70 0 62 2 70
16 60 10 -8 9 -3 -4 18 l-19 30 23 -20 23 -20 -12 23 c-9 16 -9 22 0 22 8 0 7
5 -2 17 -8 10 -9 14 -2 10 6 -4 14 -3 18 3 3 5 2 10 -3 10 -5 0 -7 12 -5 28 2
15 4 35 4 45 0 9 6 17 12 18 7 0 3 4 -8 9 -18 8 -18 9 5 10 23 1 23 2 5 10
-16 7 -17 9 -3 9 9 1 20 5 23 11 4 6 -1 7 -12 3 -16 -6 -16 -5 -4 10 9 11 10
17 2 17 -6 0 -11 4 -11 10 0 5 6 7 13 5 8 -4 12 7 12 34 1 22 -3 37 -8 34 -5
-3 -5 2 0 13 8 16 10 112 4 179 -1 17 -3 18 -11 5 -9 -13 -10 -13 -11 0 -1 8
-1 19 0 23 1 5 -3 6 -8 2 -6 -3 -8 -11 -5 -18 3 -9 -6 -13 -30 -12 -19 0 -32
4 -29 10 2 6 -3 1 -13 -10 -14 -17 -16 -17 -11 -2 4 9 2 17 -3 17 -6 0 -10 -6
-10 -12 0 -9 -3 -8 -9 2 -6 8 -7 18 -4 24 3 5 1 6 -5 2 -6 -4 -8 -14 -5 -22 5
-14 3 -15 -17 -4 -20 11 -22 10 -17 -4 4 -10 3 -15 -3 -11 -6 3 -10 14 -10 23
0 14 -2 14 -9 3 -6 -9 -20 -12 -40 -9 -24 4 -31 1 -27 -9 4 -11 1 -11 -15 -2
-11 6 -27 8 -35 5 -10 -4 -13 -1 -9 7 4 6 -1 3 -11 -8 -14 -17 -16 -17 -11 -2
4 9 2 17 -3 17 -6 0 -10 -6 -10 -12 0 -9 -3 -8 -9 2 -6 8 -7 18 -4 24 3 5 1 6
-5 2 -6 -4 -8 -14 -5 -22 5 -14 3 -15 -17 -4 -20 11 -22 10 -17 -4 4 -10 3
-15 -3 -11 -6 3 -10 14 -10 23 0 14 -2 14 -9 3 -6 -9 -20 -12 -40 -9 -24 4
-31 1 -27 -9 4 -11 1 -11 -15 -2 -11 6 -27 8 -35 5 -10 -4 -13 -1 -9 7 4 6 -1
3 -11 -8 -14 -17 -16 -17 -11 -2 4 9 2 17 -3 17 -6 0 -10 -6 -10 -12 0 -9 -3
-8 -9 2 -6 8 -7 18 -4 24 3 5 1 6 -5 2 -6 -4 -8 -14 -5 -22 5 -14 3 -15 -17
-4 -20 11 -22 10 -17 -4 4 -10 3 -15 -3 -11 -6 3 -10 14 -10 23 0 14 -2 14 -9
3 -6 -9 -20 -12 -40 -9 -24 4 -31 1 -27 -9 4 -11 1 -11 -15 -2 -11 6 -27 8
-35 5 -10 -4 -13 -1 -9 7 4 6 -1 3 -11 -8 -14 -17 -16 -17 -11 -2 4 9 2 17 -3
17 -6 0 -10 -6 -10 -12 0 -9 -3 -8 -9 2 -6 8 -7 18 -4 24 3 5 1 6 -5 2 -6 -4
-8 -14 -5 -22 5 -14 3 -15 -17 -4 -20 11 -22 10 -17 -4 4 -10 3 -15 -3 -11 -6
3 -10 14 -10 23 0 14 -2 14 -9 3 -6 -9 -20 -12 -40 -9 -24 4 -31 1 -27 -9 4
-11 1 -11 -15 -2 -11 6 -27 8 -35 5 -10 -4 -13 -1 -9 7 4 6 -1 3 -11 -8 -14
-17 -16 -17 -11 -2 4 9 2 17 -3 17 -6 0 -10 -6 -10 -12 0 -9 -3 -8 -9 2 -6 8
-7 18 -4 24 3 5 1 6 -5 2 -6 -4 -8 -14 -5 -22 5 -14 3 -15 -17 -4 -20 11 -22
10 -17 -4 4 -10 3 -15 -3 -11 -6 3 -10 14 -10 23 0 14 -2 14 -9 3 -6 -9 -20
-12 -40 -9 -24 4 -31 1 -27 -9 4 -11 1 -11 -15 -2 -11 6 -27 8 -35 5 -10 -4
-13 -1 -9 7 4 6 -1 3 -11 -8 -14 -17 -16 -17 -11 -2 4 9 2 17 -3 17 -6 0 -10
-6 -10 -12 0 -9 -3 -8 -9 2 -6 8 -7 18 -4 24 3 5 1 6 -5 2 -6 -4 -8 -14 -5
-22 5 -14 3 -15 -17 -4 -20 11 -22 10 -17 -4 4 -10 3 -15 -3 -11 -6 3 -10 14
-10 23 0 14 -2 14 -9 3 -6 -9 -20 -12 -40 -9 -24 4 -31 1 -27 -9 4 -11 1 -11
-15 -2 -11 6 -27 8 -35 5 -10 -4 -13 -1 -9 7 4 6 -1 3 -11 -8 -14 -17 -16 -17
-11 -2 4 9 2 17 -3 17 -6 0 -10 -6 -10 -12 0 -9 -3 -8 -9 2 -6 8 -7 18 -4 24
3 5 1 6 -5 2 -6 -4 -8 -14 -5 -22 5 -14 3 -15 -17 -4 -20 11 -22 10 -17 -4 4
-10 3 -15 -3 -11 -6 3 -10 14 -10 23 0 14 -2 14 -9 3 -6 -9 -20 -12 -40 -9
-24 4 -31 1 -27 -9 4 -11 1 -11 -15 -2 -11 6 -27 8 -35 5 -10 -4 -13 -1 -9 7
4 6 -1 3 -11 -8 -14 -17 -16 -17 -11 -2 4 9 2 17 -3 17 -6 0 -10 -6 -10 -12 0
-9 -3 -8 -9 2 -6 8 -7 18 -4 24 3 5 1 6 -5 2 -6 -4 -8 -14 -5 -22 5 -14 3 -15
-17 -4 -20 11 -22 10 -17 -4 4 -10 3 -15 -3 -11 -6 3 -10 14 -10 23 0 14 -2
14 -9 3 -6 -9 -20 -12 -40 -9 -24 4 -31 1 -27 -9 4 -11 1 -11 -15 -2 -11 6
-27 8 -35 5 -10 -4 -13 -1 -9 7 4 6 -1 3 -11 -8 -14 -17 -16 -17 -11 -2 4 9 2
17 -3 17 -6 0 -10 -6 -10 -12 0 -9 -3 -8 -9 2 -6 8 -7 18 -4 24 3 5 1 6 -5 2
-6 -4 -8 -14 -5 -22 5 -14 3 -15 -17 -4 -20 11 -22 10 -17 -4 4 -10 3 -15 -3
-11 -6 3 -10 14 -10 23 0 14 -2 14 -9 3 -6 -9 -20 -12 -40 -9 -24 4 -31 1 -27
-9 4 -11 1 -11 -15 -2 -11 6 -27 8 -35 5 -10 -4 -13 -1 -9 7 4 6 -1 3 -11 -8
-14 -17 -16 -17 -11 -2 4 9 2 17 -3 17 -6 0 -10 -6 -10 -12 0 -9 -3 -8 -9 2
-6 8 -7 18 -4 24 3 5 1 6 -5 2 -6 -4 -8 -14 -5 -22 5 -14 3 -15 -17 -4 -20 11
-22 10 -17 -4 4 -10 3 -15 -3 -11 -6 3 -10 14 -10 23 0 14 -2 14 -9 3 -6 -9
-20 -12 -40 -9 -24 4 -31 1 -27 -9 4 -11 1 -11 -15 -2 -11 6 -27 8 -35 5 -10
-4 -13 -1 -9 7 4 6 -1 3 -11 -8 -14 -17 -16 -17 -11 -2 4 9 2 17 -3 17 -6 0
-10 -6 -10 -12 0 -9 -3 -8 -9 2 -6 8 -7 18 -4 24 3 5 1 6 -5 2 -6 -4 -8 -14
-5 -22 5 -14 3 -15 -17 -4 -20 11 -22 10 -17 -4 4 -10 3 -15 -3 -11 -6 3 -10
14 -10 23 0 14 -2 14 -9 3 -6 -9 -20 -12 -40 -9 -24 4 -31 1 -27 -9 4 -11 1
-11 -15 -2 -11 6 -27 8 -35 5 -10 -4 -13 -1 -9 7 4 6 -1 3 -11 -8 -14 -17 -16
-17 -11 -2 4 9 2 17 -3 17 -6 0 -10 -6 -10 -12 0 -9 -3 -8 -9 2 -6 8 -7 18 -4
24 3 5 1 6 -5 2 -6 -4 -8 -14 -5 -22 5 -14 3 -15 -17 -4 -20 11 -22 10 -17 -4
4 -10 3 -15 -3 -11 -6 3 -10 14 -10 23 0 14 -2 14 -9 3 -6 -9 -20 -12 -40 -9
-24 4 -31 1 -27 -9 4 -11 1 -11 -15 -2 -11 6 -27 8 -35 5 -10 -4 -13 -1 -9 7
4 6 -1 3 -11 -8 -14 -17 -16 -17 -11 -2 4 9 2 17 -3 17 -6 0 -10 -6 -10 -12 0
-9 -3 -8 -9 2 -6 8 -7 18 -4 24 3 5 1 6 -5 2 -6 -4 -8 -14 -5 -22 5 -14 3 -15
-17 -4 -20 11 -22 10 -17 -4 4 -10 3 -15 -3 -11 -6 3 -10 14 -10 23 0 14 -2
14 -9 3 -6 -9 -20 -12 -40 -9 -24 4 -31 1 -27 -9 4 -11 1 -11 -15 -2 -11 6
-27 8 -35 5 -10 -4 -13 -1 -9 7 4 6 -1 3 -11 -8 -14 -17 -16 -17 -11 -2 4 9 2
17 -3 17 -6 0 -10 -6 -10 -12 0 -9 -3 -8 -9 2 -6 8 -7 18 -4 24 3 5 1 6 -5 2
-6 -4 -8 -14 -5 -22 5 -14 3 -15 -17 -4 -20 11 -22 10 -17 -4 4 -10 3 -15 -3
-11 -6 3 -10 14 -10 23 0 14 -2 14 -9 3 -6 -9 -20 -12 -40 -9 -24 4 -31 1 -27
-9 4 -11 1 -11 -15 -2 -11 6 -27 8 -35 5 -10 -4 -13 -1 -9 7 4 6 -1 3 -11 -8
-14 -17 -16 -17 -11 -2 4 9 2 17 -3 17 -6 0 -10 -6 -10 -12 0 -9 -3 -8 -9 2
-6 8 -7 18 -4 24 3 5 1 6 -5 2 -6 -4 -8 -14 -5 -22 5 -14 3 -15 -17 -4 -20 11
-22 10 -17 -4 4 -10 3 -15 -3 -11 -6 3 -10 14 -10 23 0 14 -2 14 -9 3 -6 -9
-20 -12 -40 -9 -24 4 -31 1 -27 -9 4 -11 1 -11 -15 -2 -11 6 -27 8 -35 5 -10
-4 -13 -1 -9 7 4 6 -1 3 -11 -8 -14 -17 -16 -17 -11 -2 4 9 2 17 -3 17 -6 0
-10 -6 -10 -12 0 -9 -3 -8 -9 2 -6 8 -7 18 -4 24 3 5 1 6 -5 2 -6 -4 -8 -14
-5 -22 5 -14 3 -15 -17 -4 -20 11 -22 10 -17 -4 4 -10 3 -15 -3 -11 -6 3 -10
14 -10 23 0 14 -2 14 -9 3 -6 -9 -20 -12 -40 -9 -24 4 -31 1 -27 -9 4 -11 1
-11 -15 -2 -11 6 -27 8 -35 5 -10 -4 -13 -1 -9 7 4 6 -1 3 -11 -8 -14 -17 -16
-17 -11 -2 4 9 2 17 -3 17 -6 0 -10 -6 -10 -12 0 -9 -3 -8 -9 2 -6 8 -7 18 -4
24 3 5 1 6 -5 2 -6 -4 -8 -14 -5 -22 5 -14 3 -15 -17 -4 -20 11 -22 10 -17 -4
4 -10 3 -15 -3 -11 -6 3 -10 14 -10 23 0 14 -2 14 -9 3 -6 -9 -20 -12 -40 -9
-24 4 -31 1 -27 -9 4 -9 2 -11 -7 -6 -21 13 -89 15 -81 2 4 -8 3 -9 -5 -5 -9
6 -9 11 -1 21 8 9 8 15 0 20 -6 4 -9 1 -8 -7z m-1129 -243 c-3 -9 -8 -14 -10
-11 -3 3 -2 9 2 15 9 16 15 13 8 -4z m4907 -1260 c0 -2 -6 -5 -13 -8 -8 -3
-14 1 -14 8 0 7 6 11 14 8 7 -3 13 -6 13 -8z m-515 -555 c-3 -5 -11 -10 -16
-10 -6 0 -7 5 -4 10 3 6 11 10 16 10 6 0 7 -4 4 -10z m-94 -64 c14 8 11 -2 -4
-14 -10 -8 -13 -6 -14 11 0 12 1 16 4 9 3 -6 9 -10 14 -6z m-5829 -98 c-5 -7
-8 -24 -6 -38 1 -14 0 -19 -2 -12 -3 6 -9 10 -14 7 -13 -8 -6 21 9 39 16 19
28 22 13 4z m5411 -163 c-7 -21 -12 -19 -10 4 0 11 5 18 9 15 4 -3 5 -11 1
-19z m-419 -164 c-3 -4 -9 -6 -12 -6 -4 0 -12 -3 -18 -7 -6 -4 -11 -1 -11 5 0
7 11 13 23 13 13 0 21 -2 18 -5z m-5033 -54 c-6 -8 -7 -18 -3 -22 4 -5 1 -5
-6 -1 -10 6 -10 11 -1 22 6 8 14 14 16 14 3 0 0 -6 -6 -13z m3433 -49 c-3 -4
-11 -5 -19 -1 -21 7 -19 12 4 10 11 0 18 -5 15 -9z m-3439 -40 c-4 -42 -3 -40
-15 -33 -7 4 -7 11 -2 18 5 7 8 20 7 30 -2 9 1 17 5 17 5 0 7 -15 5 -32z m5
-98 c0 -5 -2 -10 -4 -10 -3 0 -8 5 -11 10 -3 6 -1 10 4 10 6 0 11 -4 11 -10z
m7 -36 c-3 -3 -12 -4 -19 -1 -8 3 -5 6 6 6 11 1 17 -2 13 -5z m-12 -74 c-2
-22 0 -40 5 -40 6 0 10 -8 10 -17 -1 -16 -2 -16 -13 2 -13 22 -17 95 -5 95 4
0 5 -18 3 -40z m-1 -96 c3 -8 2 -12 -4 -9 -6 3 -10 10 -10 16 0 14 7 11 14 -7z
m6 -34 c0 -5 -2 -10 -4 -10 -3 0 -8 5 -11 10 -3 6 -1 10 4 10 6 0 11 -4 11
-10z m-4 -64 c0 -25 -3 -43 -6 -41 -5 3 -6 72 -1 83 4 10 7 -4 7 -42z m1 -91
c0 -8 -4 -12 -9 -9 -5 3 -6 10 -3 15 9 13 12 11 12 -6z m-1 -69 c0 -25 -3 -43
-6 -41 -5 3 -6 72 -1 83 4 10 7 -4 7 -42z m4 -113 c0 -5 -5 -15 -10 -23 -7
-12 -9 -10 -7 8 1 19 17 33 17 15z m1 -60 c8 -10 9 -14 2 -10 -6 4 -14 3 -18
-3 -3 -5 -1 -10 6 -10 7 0 10 -3 6 -6 -12 -12 -28 7 -18 20 6 7 8 16 4 19 -3
4 -4 7 -1 7 3 0 12 -8 19 -17z m-11 -53 c-12 -8 -12 -10 -1 -10 8 0 12 -3 8
-6 -9 -9 -28 6 -22 17 4 5 12 9 18 9 7 0 6 -4 -3 -10z m4 -65 c-1 -19 1 -35 7
-35 5 0 9 -8 9 -17 0 -15 -2 -15 -14 2 -10 16 -15 63 -7 83 5 13 8 -5 5 -33z
m0 -91 c3 -8 2 -12 -4 -9 -6 3 -10 10 -10 16 0 14 7 11 14 -7z m6 -34 c0 -5
-2 -10 -4 -10 -3 0 -8 5 -11 10 -3 6 -1 10 4 10 6 0 11 -4 11 -10z m-4 -64 c0
-25 -3 -43 -6 -41 -5 3 -6 72 -1 83 4 10 7 -4 7 -42z m-3 -91 c-3 -9 -8 -14
-10 -11 -3 3 -2 9 2 15 9 16 15 13 8 -4z m3 -71 c2 -12 -1 -13 -12 -3 -7 6
-11 16 -8 21 7 11 17 3 20 -18z m-1 -34 c-3 -5 0 -10 7 -11 10 0 11 -2 0 -6
-10 -4 -10 -8 0 -21 10 -14 10 -15 -2 -5 -17 16 -24 53 -9 53 5 0 7 -4 4 -10z
m-1 -95 c-1 -19 1 -35 7 -35 5 0 9 -8 9 -17 -1 -16 -2 -16 -13 2 -12 21 -18
97 -6 89 4 -2 5 -20 3 -39z m0 -91 c3 -8 2 -12 -4 -9 -6 3 -10 10 -10 16 0 14
7 11 14 -7z m12 -42 c1 -7 0 -8 -3 -2 -2 5 -9 8 -14 4 -5 -3 -9 0 -9 6 0 15
23 7 26 -8z m-10 -58 c2 -12 -1 -13 -12 -3 -7 6 -11 16 -8 21 7 11 17 3 20
-18z m-1 -34 c-3 -5 0 -10 7 -11 10 0 11 -2 0 -6 -10 -4 -10 -8 0 -21 10 -14
10 -15 -2 -5 -17 16 -24 53 -9 53 5 0 7 -4 4 -10z m-1 -95 c-1 -19 1 -35 7
-35 5 0 9 -8 9 -17 -1 -16 -2 -16 -13 2 -12 21 -18 97 -6 89 4 -2 5 -20 3 -39z
m5246 -11 c0 -8 -19 -13 -24 -6 -3 5 1 9 9 9 8 0 15 -2 15 -3z m-5246 -80 c3
-8 2 -12 -4 -9 -6 3 -10 10 -10 16 0 14 7 11 14 -7z m11 -54 c4 -6 -1 -7 -11
-3 -15 6 -15 4 1 -21 16 -23 16 -26 1 -20 -9 3 -14 10 -11 14 3 5 1 11 -5 15
-11 7 -4 25 10 25 5 0 12 -4 15 -10z m0 -138 c-3 -3 -11 0 -18 7 -9 10 -8 11
6 5 10 -3 15 -9 12 -12z m0 -22 c4 -6 -1 -7 -11 -3 -15 6 -15 4 1 -21 16 -23
16 -26 1 -20 -9 3 -14 10 -11 14 3 5 1 11 -5 15 -11 7 -4 25 10 25 5 0 12 -4
15 -10z m5155 -34 c0 -3 -4 -8 -10 -11 -5 -3 -10 -1 -10 4 0 6 5 11 10 11 6 0
10 -2 10 -4z m-5150 -101 c0 -12 -19 -12 -23 0 -4 9 -1 12 9 8 7 -3 14 -7 14
-8z m-14 -69 c0 -25 -3 -43 -6 -41 -5 3 -6 72 -1 83 4 10 7 -4 7 -42z m4 -113
c0 -5 -5 -15 -10 -23 -7 -12 -9 -10 -7 8 1 19 17 33 17 15z m1 -60 c8 -10 9
-14 2 -10 -6 4 -14 3 -18 -3 -3 -5 -1 -10 6 -10 7 0 10 -3 6 -6 -12 -12 -28 7
-18 20 6 7 8 16 4 19 -3 4 -4 7 -1 7 3 0 12 -8 19 -17z m-11 -53 c-12 -8 -12
-10 -1 -10 8 0 12 -3 8 -6 -9 -9 -28 6 -22 17 4 5 12 9 18 9 7 0 6 -4 -3 -10z
m4 -65 c-1 -19 1 -35 7 -35 5 0 9 -8 9 -17 0 -15 -2 -15 -14 2 -10 16 -15 63
-7 83 5 13 8 -5 5 -33z m0 -91 c3 -8 2 -12 -4 -9 -6 3 -10 10 -10 16 0 14 7
11 14 -7z m6 -34 c0 -5 -2 -10 -4 -10 -3 0 -8 5 -11 10 -3 6 -1 10 4 10 6 0
11 -4 11 -10z m-4 -64 c0 -25 -3 -43 -6 -41 -5 3 -6 72 -1 83 4 10 7 -4 7 -42z
m9 -116 c4 -6 -1 -7 -11 -3 -15 6 -15 4 1 -21 16 -23 16 -26 1 -20 -9 3 -14
10 -11 14 3 5 1 11 -5 15 -11 7 -4 25 10 25 5 0 12 -4 15 -10z m0 -138 c-3 -3
-11 0 -18 7 -9 10 -8 11 6 5 10 -3 15 -9 12 -12z m-5 -42 c-8 -5 -11 -10 -6
-10 5 0 3 -6 -3 -13 -6 -8 -7 -18 -3 -22 4 -5 1 -5 -6 0 -9 5 -10 11 -4 17 6
6 8 17 5 24 -3 9 2 14 13 14 16 0 17 -2 4 -10z m-4 -108 c-3 -3 -1 -11 6 -19
8 -11 7 -12 -5 -7 -9 3 -15 14 -14 24 1 10 5 16 10 13 4 -3 6 -8 3 -11z m0
-78 c2 -12 -1 -13 -12 -3 -7 6 -11 16 -8 21 7 11 17 3 20 -18z m-1 -34 c-3 -5
0 -10 7 -11 10 0 11 -2 0 -6 -10 -4 -10 -8 0 -21 10 -14 10 -15 -2 -5 -17 16
-24 53 -9 53 5 0 7 -4 4 -10z m12 -76 c-3 -3 -12 -4 -19 -1 -8 3 -5 6 6 6 11
1 17 -2 13 -5z m-2 -24 c3 -6 -1 -7 -9 -4 -18 7 -21 14 -7 14 6 0 13 -4 16
-10z m-9 -84 c-1 -19 -3 -32 -6 -29 -8 7 -8 63 0 63 4 0 6 -15 6 -34z m-1 -71
c-1 -14 2 -28 7 -31 4 -3 6 -10 2 -15 -11 -18 -21 0 -18 33 3 38 3 38 8 38 2
0 3 -11 1 -25z m5 -96 c0 -5 -4 -9 -8 -9 -5 0 -9 7 -9 15 0 8 4 12 9 9 4 -3 8
-9 8 -15z m-3 -39 c-1 -21 -10 -18 -13 5 -1 8 2 15 6 15 5 0 8 -9 7 -20z m10
-36 c-3 -3 -12 -4 -19 -1 -8 3 -5 6 6 6 11 1 17 -2 13 -5z m-7 -74 c0 -5 -4
-10 -10 -10 -5 0 -10 5 -10 10 0 6 5 10 10 10 6 0 10 -4 10 -10z m-5 -40 c-1
-11 -4 -22 -7 -25 -4 -5 -4 34 1 43 4 8 7 -1 6 -18z m2 -125 c0 -8 -4 -12 -9
-9 -5 3 -6 10 -3 15 9 13 12 11 12 -6z m3003 -57 c0 -14 -15 -16 -27 -3 -10
11 -9 13 7 12 11 -1 20 -5 20 -9z m-3009 -71 c-10 -9 -11 -8 -5 6 3 10 9 15
12 12 3 -3 0 -11 -7 -18z m16 -23 c-3 -3 -12 -4 -19 -1 -8 3 -5 6 6 6 11 1 17
-2 13 -5z m-12 -74 c-2 -22 0 -40 5 -40 6 0 10 -8 10 -17 -1 -16 -2 -16 -13 2
-13 22 -17 95 -5 95 4 0 5 -18 3 -40z m-1 -96 c3 -8 2 -12 -4 -9 -6 3 -10 10
-10 16 0 14 7 11 14 -7z m6 -34 c0 -5 -2 -10 -4 -10 -3 0 -8 5 -11 10 -3 6 -1
10 4 10 6 0 11 -4 11 -10z m-4 -64 c0 -25 -3 -43 -6 -41 -5 3 -6 72 -1 83 4
10 7 -4 7 -42z m1 -91 c0 -8 -4 -12 -9 -9 -5 3 -6 10 -3 15 9 13 12 11 12 -6z
m-1 -69 c0 -25 -3 -43 -6 -41 -5 3 -6 72 -1 83 4 10 7 -4 7 -42z m4 -113 c0
-5 -5 -15 -10 -23 -7 -12 -9 -10 -7 8 1 19 17 33 17 15z m1 -60 c8 -10 9 -14
2 -10 -6 4 -14 3 -18 -3 -3 -5 -1 -10 6 -10 7 0 10 -3 6 -6 -12 -12 -28 7 -18
20 6 7 8 16 4 19 -3 4 -4 7 -1 7 3 0 12 -8 19 -17z m-11 -53 c-12 -8 -12 -10
-1 -10 8 0 12 -3 8 -6 -9 -9 -28 6 -22 17 4 5 12 9 18 9 7 0 6 -4 -3 -10z m4
-65 c-1 -19 1 -35 7 -35 5 0 9 -8 9 -17 0 -15 -2 -15 -14 2 -10 16 -15 63 -7
83 5 13 8 -5 5 -33z m0 -91 c3 -8 2 -12 -4 -9 -6 3 -10 10 -10 16 0 14 7 11
14 -7z m6 -34 c0 -5 -2 -10 -4 -10 -3 0 -8 5 -11 10 -3 6 -1 10 4 10 6 0 11
-4 11 -10z m-4 -64 c0 -25 -3 -43 -6 -41 -5 3 -6 72 -1 83 4 10 7 -4 7 -42z
m9 -116 c4 -6 -1 -7 -11 -3 -15 6 -15 4 1 -21 16 -23 16 -26 1 -20 -9 3 -14
10 -11 14 3 5 1 11 -5 15 -11 7 -4 25 10 25 5 0 12 -4 15 -10z m0 -138 c-3 -3
-11 0 -18 7 -9 10 -8 11 6 5 10 -3 15 -9 12 -12z m0 -22 c4 -6 -1 -7 -11 -3
-15 6 -15 4 1 -21 16 -23 16 -26 1 -20 -9 3 -14 10 -11 14 3 5 1 11 -5 15 -11
7 -4 25 10 25 5 0 12 -4 15 -10z m5 -135 c0 -12 -19 -12 -23 0 -4 9 -1 12 9 8
7 -3 14 -7 14 -8z m-14 -69 c0 -25 -3 -43 -6 -41 -5 3 -6 72 -1 83 4 10 7 -4
7 -42z m4 -113 c0 -5 -5 -15 -10 -23 -7 -12 -9 -10 -7 8 1 19 17 33 17 15z m1
-60 c8 -10 9 -14 2 -10 -6 4 -14 3 -18 -3 -3 -5 -1 -10 6 -10 7 0 10 -3 6 -6
-12 -12 -28 7 -18 20 6 7 8 16 4 19 -3 4 -4 7 -1 7 3 0 12 -8 19 -17z m-11
-53 c-12 -8 -12 -10 -1 -10 8 0 12 -3 8 -6 -9 -9 -28 6 -22 17 4 5 12 9 18 9
7 0 6 -4 -3 -10z m4 -65 c-1 -19 1 -35 7 -35 5 0 9 -8 9 -17 0 -15 -2 -15 -14
2 -10 16 -15 63 -7 83 5 13 8 -5 5 -33z m2592 -82 c-1 -7 -7 -18 -13 -24 -8
-8 -11 -4 -10 13 1 14 7 25 13 25 7 0 11 -6 10 -14z m-2592 -9 c3 -8 2 -12 -4
-9 -6 3 -10 10 -10 16 0 14 7 11 14 -7z m6 -34 c0 -5 -2 -10 -4 -10 -3 0 -8 5
-11 10 -3 6 -1 10 4 10 6 0 11 -4 11 -10z m-4 -64 c0 -25 -3 -43 -6 -41 -5 3
-6 72 -1 83 4 10 7 -4 7 -42z m9 -116 c4 -6 -1 -7 -11 -3 -15 6 -15 4 1 -21
16 -23 16 -26 1 -20 -9 3 -14 10 -11 14 3 5 1 11 -5 15 -11 7 -4 25 10 25 5 0
12 -4 15 -10z m0 -138 c-3 -3 -11 0 -18 7 -9 10 -8 11 6 5 10 -3 15 -9 12 -12z
m0 -22 c4 -6 -1 -7 -11 -3 -15 6 -15 4 1 -21 16 -23 16 -26 1 -20 -9 3 -14 10
-11 14 3 5 1 11 -5 15 -11 7 -4 25 10 25 5 0 12 -4 15 -10z m0 -138 c-3 -3
-11 0 -18 7 -9 10 -8 11 6 5 10 -3 15 -9 12 -12z m0 -22 c4 -6 -1 -7 -11 -3
-15 6 -15 4 1 -21 16 -23 16 -26 1 -20 -9 3 -14 10 -11 14 3 5 1 11 -5 15 -11
7 -4 25 10 25 5 0 12 -4 15 -10z m0 -138 c-3 -3 -11 0 -18 7 -9 10 -8 11 6 5
10 -3 15 -9 12 -12z m0 -22 c4 -6 -1 -7 -11 -3 -15 6 -15 4 1 -21 16 -23 16
-26 1 -20 -9 3 -14 10 -11 14 3 5 1 11 -5 15 -11 7 -4 25 10 25 5 0 12 -4 15
-10z m5 -135 c0 -12 -19 -12 -23 0 -4 9 -1 12 9 8 7 -3 14 -7 14 -8z m-14 -69
c0 -25 -3 -43 -6 -41 -5 3 -6 72 -1 83 4 10 7 -4 7 -42z m4 -113 c0 -5 -5 -15
-10 -23 -7 -12 -9 -10 -7 8 1 19 17 33 17 15z m1 -60 c8 -10 9 -14 2 -10 -6 4
-14 3 -18 -3 -3 -5 -1 -10 6 -10 7 0 10 -3 6 -6 -12 -12 -28 7 -18 20 6 7 8
16 4 19 -3 4 -4 7 -1 7 3 0 12 -8 19 -17z m2089 -8 c-7 -8 -17 -15 -23 -15 -6
0 -2 7 9 15 25 19 30 19 14 0z m-2100 -45 c-12 -8 -12 -10 -1 -10 8 0 12 -3 8
-6 -9 -9 -28 6 -22 17 4 5 12 9 18 9 7 0 6 -4 -3 -10z m4 -65 c-1 -19 1 -35 7
-35 5 0 9 -8 9 -17 0 -15 -2 -15 -14 2 -10 16 -15 63 -7 83 5 13 8 -5 5 -33z
m0 -91 c3 -8 2 -12 -4 -9 -6 3 -10 10 -10 16 0 14 7 11 14 -7z m6 -34 c0 -5
-2 -10 -4 -10 -3 0 -8 5 -11 10 -3 6 -1 10 4 10 6 0 11 -4 11 -10z m-4 -64 c0
-25 -3 -43 -6 -41 -5 3 -6 72 -1 83 4 10 7 -4 7 -42z m9 -116 c4 -6 -1 -7 -11
-3 -15 6 -15 4 1 -21 16 -23 16 -26 1 -20 -9 3 -14 10 -11 14 3 5 1 11 -5 15
-11 7 -4 25 10 25 5 0 12 -4 15 -10z m0 -138 c-3 -3 -11 0 -18 7 -9 10 -8 11
6 5 10 -3 15 -9 12 -12z m0 -22 c4 -6 -1 -7 -11 -3 -15 6 -15 4 1 -21 16 -23
16 -26 1 -20 -9 3 -14 10 -11 14 3 5 1 11 -5 15 -11 7 -4 25 10 25 5 0 12 -4
15 -10z m5 -135 c0 -12 -19 -12 -23 0 -4 9 -1 12 9 8 7 -3 14 -7 14 -8z m1230
1 c0 -3 -4 -8 -10 -11 -5 -3 -10 -1 -10 4 0 6 5 11 10 11 6 0 10 -2 10 -4z
m-1244 -70 c0 -25 -3 -43 -6 -41 -5 3 -6 72 -1 83 4 10 7 -4 7 -42z m4 -136
c0 -5 -4 -10 -10 -10 -5 0 -10 5 -10 10 0 6 5 10 10 10 6 0 10 -4 10 -10z m7
-42 c-3 -8 -6 -5 -6 6 -1 11 2 17 5 13 3 -3 4 -12 1 -19z m-12 -26 c-3 -3 -11
0 -18 7 -9 10 -8 11 6 5 10 -3 15 -9 12 -12z m482 3 c0 -8 -4 -12 -9 -9 -5 3
-6 10 -3 15 9 13 12 11 12 -6z m-487 -25 c-12 -8 -12 -10 -1 -10 8 0 12 -3 8
-6 -9 -9 -28 6 -22 17 4 5 12 9 18 9 7 0 6 -4 -3 -10z m267 -3 c0 -8 -6 -14
-14 -14 -9 0 -10 4 -2 14 6 7 12 13 14 13 1 0 2 -6 2 -13z m52 0 c9 4 13 3 10
-1 -13 -14 -46 -14 -46 0 0 9 4 11 10 5 5 -5 17 -7 26 -4z"/>
<path d="M4475 10550 c-4 -6 -10 -8 -15 -5 -5 3 -11 1 -14 -4 -8 -13 22 -7 36
7 7 7 9 12 6 12 -4 0 -10 -5 -13 -10z"/>
<path d="M4690 10556 c0 -2 8 -10 18 -17 15 -13 16 -12 3 4 -13 16 -21 21 -21
13z"/>
<path d="M4930 10556 c0 -2 8 -10 18 -17 15 -13 16 -12 3 4 -13 16 -21 21 -21
13z"/>
<path d="M5170 10556 c0 -2 8 -10 18 -17 15 -13 16 -12 3 4 -13 16 -21 21 -21
13z"/>
<path d="M5410 10556 c0 -2 8 -10 18 -17 15 -13 16 -12 3 4 -13 16 -21 21 -21
13z"/>
<path d="M5650 10556 c0 -2 8 -10 18 -17 15 -13 16 -12 3 4 -13 16 -21 21 -21
13z"/>
<path d="M5890 10556 c0 -2 8 -10 18 -17 15 -13 16 -12 3 4 -13 16 -21 21 -21
13z"/>
<path d="M6130 10556 c0 -2 8 -10 18 -17 15 -13 16 -12 3 4 -13 16 -21 21 -21
13z"/>
<path d="M6370 10556 c0 -2 8 -10 18 -17 15 -13 16 -12 3 4 -13 16 -21 21 -21
13z"/>
<path d="M6610 10556 c0 -2 8 -10 18 -17 15 -13 16 -12 3 4 -13 16 -21 21 -21
13z"/>
<path d="M6850 10556 c0 -2 8 -10 18 -17 15 -13 16 -12 3 4 -13 16 -21 21 -21
13z"/>
<path d="M7090 10556 c0 -2 8 -10 18 -17 15 -13 16 -12 3 4 -13 16 -21 21 -21
13z"/>
<path d="M7330 10556 c0 -2 8 -10 18 -17 15 -13 16 -12 3 4 -13 16 -21 21 -21
13z"/>
<path d="M7570 10556 c0 -2 8 -10 18 -17 15 -13 16 -12 3 4 -13 16 -21 21 -21
13z"/>
<path d="M7810 10556 c0 -2 8 -10 18 -17 15 -13 16 -12 3 4 -13 16 -21 21 -21
13z"/>
<path d="M8050 10556 c0 -2 8 -10 18 -17 15 -13 16 -12 3 4 -13 16 -21 21 -21
13z"/>
<path d="M8290 10556 c0 -2 8 -10 18 -17 15 -13 16 -12 3 4 -13 16 -21 21 -21
13z"/>
<path d="M8530 10556 c0 -2 8 -10 18 -17 15 -13 16 -12 3 4 -13 16 -21 21 -21
13z"/>
<path d="M3915 10520 c-3 -5 -1 -10 4 -10 6 0 11 5 11 10 0 6 -2 10 -4 10 -3
0 -8 -4 -11 -10z"/>
<path d="M3386 10373 c-6 -14 -5 -15 5 -6 7 7 10 15 7 18 -3 3 -9 -2 -12 -12z"/>
<path d="M8585 10121 c-3 -5 -2 -12 3 -15 5 -3 9 1 9 9 0 17 -3 19 -12 6z"/>
<path d="M8550 9960 c0 -5 5 -10 10 -10 6 0 10 5 10 10 0 6 -4 10 -10 10 -5 0
-10 -4 -10 -10z"/>
<path d="M2456 9788 c3 -5 10 -6 15 -3 13 9 11 12 -6 12 -8 0 -12 -4 -9 -9z"/>
<path d="M8386 9462 c-2 -4 0 -14 6 -22 8 -12 9 -12 4 2 -3 10 1 18 12 21 16
4 16 5 0 6 -9 0 -19 -3 -22 -7z"/>
<path d="M8343 9373 c4 -3 1 -13 -6 -22 -11 -14 -10 -14 5 -2 16 12 16 31 1
31 -4 0 -3 -3 0 -7z"/>
<path d="M8100 8976 c0 -2 8 -10 18 -17 15 -13 16 -12 3 4 -13 16 -21 21 -21
13z"/>
<path d="M1810 8806 c0 -2 8 -10 18 -17 15 -13 16 -12 3 4 -13 16 -21 21 -21
13z"/>
<path d="M6550 7946 c0 -2 7 -7 16 -10 8 -3 12 -2 9 4 -6 10 -25 14 -25 6z"/>
<path d="M4415 6600 c-3 -5 -1 -10 4 -10 6 0 11 5 11 10 0 6 -2 10 -4 10 -3 0
-8 -4 -11 -10z"/>
<path d="M4840 6600 c-9 -6 -10 -10 -3 -10 6 0 15 5 18 10 8 12 4 12 -15 0z"/>
<path d="M5320 6600 c-9 -6 -10 -10 -3 -10 6 0 15 5 18 10 8 12 4 12 -15 0z"/>
<path d="M5800 6600 c-9 -6 -10 -10 -3 -10 6 0 15 5 18 10 8 12 4 12 -15 0z"/>
<path d="M6280 6600 c-9 -6 -10 -10 -3 -10 6 0 15 5 18 10 8 12 4 12 -15 0z"/>
<path d="M6760 6600 c-9 -6 -10 -10 -3 -10 6 0 15 5 18 10 8 12 4 12 -15 0z"/>
<path d="M4346 6592 c-3 -5 1 -9 9 -9 8 0 12 4 9 9 -3 4 -7 8 -9 8 -2 0 -6 -4
-9 -8z"/>
<path d="M6485 5090 c-3 -6 1 -7 9 -4 18 7 21 14 7 14 -6 0 -13 -4 -16 -10z"/>
<path d="M6406 4991 c-3 -5 1 -11 9 -14 9 -4 12 -1 8 9 -6 16 -10 17 -17 5z"/>
<path d="M6330 4881 c0 -6 4 -12 8 -15 5 -3 9 1 9 9 0 8 -4 15 -9 15 -4 0 -8
-4 -8 -9z"/>
<path d="M6235 4780 c-3 -5 -1 -10 4 -10 6 0 11 5 11 10 0 6 -2 10 -4 10 -3 0
-8 -4 -11 -10z"/>
<path d="M6037 4588 c-15 -11 -27 -24 -27 -29 0 -5 8 -1 19 10 10 10 25 21 32
23 8 3 12 8 9 11 -3 3 -17 -4 -33 -15z"/>
<path d="M5826 4422 c-3 -5 1 -9 9 -9 8 0 12 4 9 9 -3 4 -7 8 -9 8 -2 0 -6 -4
-9 -8z"/>
<path d="M5376 4171 c-4 -5 -2 -12 3 -15 5 -4 12 -2 15 3 4 5 2 12 -3 15 -5 4
-12 2 -15 -3z"/>
<path d="M5225 4109 c-4 -6 -5 -12 -2 -15 2 -3 7 2 10 11 7 17 1 20 -8 4z"/>
<path d="M4290 2280 c0 -5 5 -10 10 -10 6 0 10 5 10 10 0 6 -4 10 -10 10 -5 0
-10 -4 -10 -10z"/>
<path d="M3805 1070 c-3 -6 1 -7 9 -4 18 7 21 14 7 14 -6 0 -13 -4 -16 -10z"/>
<path d="M3745 989 c-4 -6 -5 -12 -2 -15 2 -3 7 2 10 11 7 17 1 20 -8 4z"/>
</g>
</svg>
