<svg width="114" height="75" viewBox="0 0 114 75" fill="none" xmlns="http://www.w3.org/2000/svg"><g clip-path="url(#clip0)"><path fill-rule="evenodd" clip-rule="evenodd" d="M88.391.012a5.435 5.435 0 01-5.434 5.423 5.435 5.435 0 015.434 5.433 5.435 5.435 0 015.435-5.433v5.435V0h-5.435 5.435v5.435A5.435 5.435 0 0188.391.012zM31.326 29.348H21v10.326c5.685 0 10.296-4.593 10.326-10.27.03 5.677 4.642 10.27 10.326 10.27V29.348 50 39.674c-5.703 0-10.326 4.623-10.326 10.326 0-5.703-4.623-10.325-10.326-10.326V29.348h10.326z" fill="#EB5555"/><path d="M23.174 17.435c0-6.628 5.372-12 12-12H73.13c6.628 0 12 5.372 12 12v8.652H23.174v-8.652z" fill="#FFBA4A"/><path d="M49.26 17.435c0-6.628 5.373-12 12-12h11.87c6.628 0 12 5.372 12 12V64.13H49.26V17.435z" fill="#FFBA4A"/><path d="M23.174 17.435c0-6.628 5.372-12 12-12h2.087c6.627 0 12 5.372 12 12v8.652H23.174v-8.652z" fill="#C99035"/><path fill="#993280" d="M57.956 20.652h33.696v4.891H57.956z"/><path fill="#A03C7D" d="M57.956 30.435h33.696v4.891H57.956zm0 9.782h22.826v4.891H57.956z"/><path d="M60.13 75V64.13h8.696V75l-4.348-4.348L60.13 75z" fill="#993280"/><circle cx="64.478" cy="59.783" r="6.522" fill="#EB5555"/></g><defs><clipPath id="clip0"><path fill="#fff" d="M0 0h114v75H0z"/></clipPath></defs></svg>