<svg width="114" height="75" viewBox="0 0 114 75" fill="none" xmlns="http://www.w3.org/2000/svg"><rect x="48.398" y="2.504" width="11.721" height="9.377" rx="2.344" fill="#A03C7D"/><rect x="71.832" y="8.94" width="5.263" height="7.017" rx=".877" transform="rotate(30 71.832 8.94)" fill="#A03C7D"/><path d="M70.497 7.952a.877.877 0 011.198-.32l6.014 3.471c.42.242.563.779.321 1.198l-1.604 2.779-7.533-4.35 1.604-2.778z" fill="#A03C7D"/><rect width="5.263" height="7.017" rx=".877" transform="scale(-1 1) rotate(30 -34.758 -60.905)" fill="#A03C7D"/><path d="M36.445 7.952a.877.877 0 00-1.198-.321l-6.014 3.472a.877.877 0 00-.321 1.198l1.604 2.779 7.533-4.35-1.604-2.778z" fill="#A03C7D"/><circle cx="53.673" cy="41.768" r="32.232" fill="#FFBA4A"/><circle cx="53.673" cy="41.768" r="29.105" stroke="#EB5555" stroke-opacity=".3" stroke-width="6.254"/><path fill-rule="evenodd" clip-rule="evenodd" d="M96 0c0 7.18 5.82 13 13 13V0v26-13c-7.18 0-13 5.82-13 13-.001-7.18-5.82-13-13-13 7.18 0 13-5.82 13-13zM4 57.59a7.03 7.03 0 017.03 7.025 7.03 7.03 0 017.031-7.025v7.03-14.061h-7.03A7.03 7.03 0 014 57.589zm7.03-7.031h7.031v7.03a7.03 7.03 0 01-7.03-7.03z" fill="#EB5555"/><path d="M36.678 42.354h20.51s8.176-13.752 14.126-23.593" stroke="#A03C7D" stroke-width="6.254"/></svg>