<svg width="1947" height="489" viewBox="0 0 1947 489" fill="none" xmlns="http://www.w3.org/2000/svg"><g clip-path="url(#clip0)"><path fill="#EE6C6C" d="M0 .652h488v488H0z"/><path fill="#FFA3B3" d="M486.67.652h488v488h-488z"/><path d="M0 360.652c0-198.823 161.177-360 360-360h128v488H0v-128z" fill="#FFC464"/><path d="M486.67.652h488v488h-128c-198.823 0-360-161.178-360-360v-128z" fill="#FD856D"/><path fill="#EE6C6C" d="M1946.68 488.652h-488v-488h488z"/><path fill="#FFC464" d="M1460 488.652H972v-488h488z"/><path d="M1946.68 488.652h-488v-128c0-198.823 161.17-360 360-360h128v488z" fill="#FFA3B3"/><path d="M1460 488.652h-127.99c-198.83 0-360.005-161.178-360.005-360v-128H1460v488z" fill="#A284E8"/><path d="M1946.68 488.652h-124.22v-34.218c0-49.706 40.29-90 90-90h34.22v124.218zm-124.22 0h-124.22V364.434h34.22c49.7 0 90 40.294 90 90v34.218z" fill="#A95094"/><path d="M1946.68 364.434h-34.22c-49.71 0-90-40.295-90-90v-34.219h124.22v124.219zm-124.22-90c0 49.705-40.3 90-90 90h-34.22V240.215h124.22v34.219z" fill="#A95094"/></g><defs><clipPath id="clip0"><path fill="#fff" transform="translate(0 .652)" d="M0 0h1946.68v488H0z"/></clipPath></defs></svg>