<svg width="2881" height="382" viewBox="0 0 2881 382" fill="none" xmlns="http://www.w3.org/2000/svg"><path fill="#EE6C6C" d="M720.23.754h360v381h-360z"/><path fill="#FFA3B3" d="M1080.23.754h360v381h-360z"/><path fill="#A284E8" d="M360.229.754h360v381h-360z"/><path d="M720.23 360.754c0-198.823 161.178-360 360-360v381h-360v-21z" fill="#FFC464"/><path d="M1080.23.754h360v381c-198.82 0-360-161.178-360-360v-21zm-720.001 0h360v381c-198.822 0-360-161.178-360-360v-21z" fill="#FD856D"/><path fill="#EE6C6C" d="M2160.23 381.754h-360v-381h360zm-1800.001 0h-360v-381h360zm2520.001 0h-360v-381h360z"/><path fill="#FFC464" d="M1800.23 381.754h-360v-381h360z"/><path fill="#EE6C6C" d="M2520.23 381.754h-360v-381h360z"/><path d="M2160.23 381.754h-360v-21c0-198.823 161.18-360 360-360v381z" fill="#FFA3B3"/><path d="M360.229 381.754h-360v-21c0-198.823 161.177-360 359.999-360l.001 381z" fill="#FFC464"/><path d="M2880.23 381.754h-360v-21c0-198.823 161.18-360 360-360v381z" fill="#FFA3B3"/><path d="M1800.23 381.754c-198.82 0-360-161.178-360-360v-21h360v381zm720 0c-198.82 0-360-161.178-360-360v-21h360v381z" fill="#A284E8"/><path d="M2160.23 381.754h-90v-5.25c0-49.706 40.29-90 90-90v95.25zm-90 0h-90v-95.25c49.7 0 90 40.294 90 90v5.25zm90-95.25c-49.71 0-90-40.294-90-90v-5.25h90v95.25zm-90-90c0 49.706-40.3 90-90 90v-95.25h90v5.25z" fill="#A95094"/></svg>