<svg width="100" height="100" viewBox="0 0 100 100" fill="none" xmlns="http://www.w3.org/2000/svg"><path opacity=".1" d="M50 97.61c0 1.32 1.07 2.396 2.388 2.333A50 50 0 1025.567 6.376c-1.151.645-1.49 2.125-.79 3.244.699 1.119 2.17 1.454 3.324.815a45.222 45.222 0 1124.287 84.723c-1.317.07-2.388 1.133-2.388 2.453z" fill="#2F2F2F"/><path d="M35.115 47.914c1.752 0 3.208.58 4.367 1.74 1.168 1.159 1.752 2.615 1.752 4.366 0 1.837-.639 3.36-1.917 4.57-1.27 1.203-2.928 1.804-4.976 1.804a10.03 10.03 0 01-2.489-.305c-.787-.195-1.43-.432-1.93-.711a14.03 14.03 0 01-1.294-.825c-.373-.28-.635-.525-.787-.737l-.267-.292 2.349-2.462c.118.135.283.304.495.507.22.195.694.462 1.422.8a5.245 5.245 0 002.234.508c.973 0 1.735-.262 2.285-.787.559-.533.838-1.223.838-2.07 0-.846-.296-1.557-.889-2.132-.584-.576-1.328-.864-2.234-.864-.626 0-1.185.119-1.676.356-.49.237-.833.474-1.028.71l-.28.369-2.729-.254.648-10.41h11.044v3.39h-7.528l-.266 3.377c.694-.432 1.646-.648 2.856-.648zm12.099-6.12h3.25V60h-3.898V46.746h-3.123V44.27a5.762 5.762 0 001.536-.393c.466-.203.825-.419 1.08-.648a6.03 6.03 0 00.66-.66 3.01 3.01 0 00.393-.558l.102-.216zm11.196 6.204c-.267.267-.4.602-.4 1.006 0 .397.133.73.4.996.267.267.6.4.996.4.404 0 .74-.133 1.006-.4.267-.267.4-.599.4-.996 0-.404-.133-.739-.4-1.006a1.364 1.364 0 00-1.006-.4c-.397 0-.729.133-.996.4zM57.912 60l8.8-14.004h2.5L60.411 60h-2.5zm3.897-13.3c.67.663 1.006 1.431 1.006 2.304 0 .866-.336 1.634-1.006 2.305a3.274 3.274 0 01-2.403.996c-.93 0-1.731-.332-2.402-.996-.664-.671-.996-1.44-.996-2.305 0-.872.332-1.64.996-2.305.67-.664 1.471-.996 2.402-.996.938 0 1.739.332 2.403.996zm6.904 11.298c.267-.267.4-.599.4-.996 0-.404-.133-.739-.4-1.006a1.364 1.364 0 00-1.006-.4 1.364 1.364 0 00-1.397 1.406c0 .397.134.73.401.996.267.267.6.4.996.4.404 0 .74-.133 1.006-.4zm-3.408 1.309c-.664-.67-.996-1.44-.996-2.305 0-.866.332-1.63.996-2.295.67-.67 1.471-1.006 2.402-1.006.938 0 1.739.335 2.403 1.006.67.664 1.005 1.43 1.005 2.295 0 .866-.335 1.634-1.005 2.305a3.274 3.274 0 01-2.403.996c-.93 0-1.731-.332-2.402-.996z" fill="#2F2F2F"/><path d="M50 2.38c0-1.314-1.067-2.386-2.38-2.323A50 50 0 1074.44 93.62c1.148-.643 1.484-2.117.788-3.233-.697-1.115-2.163-1.448-3.313-.811a45.237 45.237 0 01-58.043-66.802A45.238 45.238 0 0147.62 4.824C48.933 4.756 50 3.697 50 2.382z" fill="#FFC464"/></svg>