<svg width="406" height="817" viewBox="0 0 406 817" fill="none" xmlns="http://www.w3.org/2000/svg"><path fill="#EE6C6C" d="M406 408H0V0h406z"/><path d="M406 408H0v-48C0 161.177 161.177 0 360 0h46v408z" fill="#FFA3B3"/><path d="M406 457c0 198.822-161.177 360-360 360H0V408l406-.001V457z" fill="#FFC464"/><path d="M406 408.499H304.5v-12.125c0-49.705 40.294-90 90-90H406v102.125zm-101.5.001H203V306.375h11.5c49.705 0 90 40.294 90 90V408.5z" fill="#A95094"/><path d="M406 306.375h-11.5c-49.706 0-90-40.295-90-90.001V204.25H406v102.125zm-101.5-90.001c0 49.706-40.295 90.001-90 90.001H203V204.25h101.5v12.124z" fill="#A95094"/></svg>