<svg width="114" height="75" viewBox="0 0 114 75" fill="none" xmlns="http://www.w3.org/2000/svg"><path d="M23.984 37.5h66.532V61c0 7.732-6.268 14-14 14H37.984c-7.732 0-14-6.268-14-14V37.5z" fill="#FFBA4A"/><path d="M66.323 42.339h14.516v19.193a5 5 0 01-5 5h-4.516a5 5 0 01-5-5V42.34z" fill="#CA8CBB"/><path d="M39.71 31.452h14.516v30.08a5 5 0 01-5 5h-4.517a5 5 0 01-5-5v-30.08z" fill="#A03C7D"/><circle cx="46.968" cy="18.145" r="16.936" fill="#A03C7D"/><path d="M70.557 13.47v28.87h6.048V13.47l1.815-5.248-1.815-4.593h-6.048l-1.815 4.593 1.815 5.248z" fill="#993280"/><path d="M46.968 22.984l-6.049-3.024V0h11.492v19.96l-5.443 3.024z" fill="#fff"/><path fill-rule="evenodd" clip-rule="evenodd" d="M15.081 42.339H1v14.08-7.04a7.04 7.04 0 017.04 7.015 7.04 7.04 0 017.016-7.014 7.04 7.04 0 01-7.015-7.015A7.04 7.04 0 011 49.379v-7.04h14.08zM83.258 22.12c8.195 0 14.841-6.633 14.862-14.824.02 8.191 6.667 14.825 14.863 14.825V7.258v29.726V22.12c-8.209 0-14.863 6.654-14.863 14.863 0-8.208-6.654-14.862-14.862-14.863z" fill="#EB5555"/></svg>