<svg width="625" height="299" viewBox="0 0 625 299" fill="none" xmlns="http://www.w3.org/2000/svg"><path d="M103.889 109.717l6.652-24.828 19.647 5.264-6.652 24.828-5.251-1.407 5.478-20.446-9.145-2.45-5.479 20.446-5.25-1.407zm41.244-9.671c2.133.572 3.636 1.869 4.51 3.892.881 2 .889 4.611.026 7.834-.864 3.222-2.206 5.496-4.027 6.822-1.815 1.303-3.789 1.668-5.922 1.097-1.367-.367-2.392-.902-3.073-1.606-.674-.728-1.183-1.473-1.525-2.235l-.278-.075a15.444 15.444 0 01-.468 2.856l-2.049 7.651-5.182-1.389 7.324-27.332 4.207 1.128.069 2.664.244.066c.715-.629 1.575-1.106 2.582-1.433 1.007-.326 2.194-.306 3.562.06zm-2.778 3.691c-1.344-.36-2.407-.198-3.187.488-.756.692-1.388 1.889-1.894 3.592l-.149.556c-.491 1.832-.603 3.317-.337 4.457.296 1.123 1.162 1.877 2.599 2.262 1.183.317 2.182.063 3-.762.846-.841 1.518-2.189 2.015-4.044 1-3.732.318-5.915-2.047-6.549zm17.114 8.573c-.106.395-.26.875-.461 1.442a50.91 50.91 0 01-.58 1.746c-.184.596-.362 1.12-.533 1.571-.17.452-.292.767-.365.946l12.332-10.97 6.224 1.668-5.087 18.986-5.008-1.342 2.032-7.58c.167-.626.374-1.304.619-2.033.251-.753.487-1.448.707-2.084.25-.654.433-1.151.549-1.493l-12.287 10.945-6.224-1.668 5.087-18.986 5.007 1.341-2.012 7.511zm45.956 4.264l-5.087 18.986-4.834-1.295 2.497-9.319c.249-.927.503-1.828.762-2.703.282-.868.558-1.664.826-2.388l-.104-.027-9.127 13.058-3.895-1.043-1.435-15.926-.139-.038c-.112.79-.275 1.629-.487 2.516-.184.87-.415 1.827-.695 2.87l-2.46 9.18-4.833-1.295 5.087-18.986 7.337 1.966 1.282 14.133 8.246-11.58 7.059 1.891zm13.333 3.2c2.62.702 4.493 2.011 5.619 3.928 1.133 1.894 1.329 4.22.59 6.979l-.671 2.503-12.24-3.279c-.345 1.472-.224 2.735.364 3.787.611 1.058 1.647 1.783 3.107 2.174 1.229.329 2.373.512 3.432.547a17.54 17.54 0 003.402-.318l-1.072 3.999a12.122 12.122 0 01-3.225.216c-1.083-.041-2.354-.258-3.814-.649-1.901-.51-3.489-1.308-4.763-2.394-1.268-1.11-2.127-2.496-2.576-4.157-.449-1.661-.382-3.581.202-5.76.596-2.225 1.461-3.969 2.594-5.231 1.162-1.278 2.515-2.108 4.059-2.49 1.543-.382 3.207-.333 4.992.145zm-.953 3.695c-.996-.267-1.918-.166-2.764.303-.823.475-1.476 1.381-1.958 2.718l7.267 1.947c.288-1.165.241-2.196-.14-3.093-.374-.921-1.176-1.545-2.405-1.875zm24.245 2.546c2.133.572 3.636 1.869 4.511 3.892.88 2 .888 4.611.025 7.834-.863 3.222-2.206 5.496-4.027 6.822-1.815 1.302-3.789 1.668-5.922 1.097-1.367-.367-2.392-.902-3.073-1.607-.674-.727-1.183-1.472-1.525-2.235l-.278-.074a15.374 15.374 0 01-.468 2.856l-2.049 7.65-5.182-1.388 7.324-27.332 4.208 1.128.068 2.664.244.066c.715-.629 1.576-1.106 2.582-1.433 1.007-.326 2.194-.306 3.562.06zm-2.778 3.691c-1.344-.36-2.407-.198-3.187.488-.756.691-1.388 1.889-1.894 3.592l-.149.556c-.491 1.832-.603 3.317-.337 4.457.296 1.123 1.162 1.877 2.599 2.262 1.183.316 2.182.063 3-.762.846-.842 1.518-2.19 2.015-4.044 1-3.733.318-5.916-2.047-6.549zm38.31 11.532c-.273 1.02-.831 1.803-1.672 2.347-.819.551-1.882.763-3.19.637l-.037.139c1.278.516 2.212 1.251 2.801 2.204.613.959.764 2.018.453 3.177-.292 1.09-.843 1.986-1.652 2.688-.786.709-1.859 1.142-3.218 1.3-1.359.157-3.035-.031-5.029-.565l-9.041-2.423 5.087-18.986 9.041 2.422c1.484.398 2.762.914 3.834 1.549 1.102.619 1.892 1.377 2.372 2.276.503.905.587 1.983.251 3.235zm-5.362-.989c.31-1.16-.45-1.985-2.282-2.475l-3.651-.979-1.006 3.756 3.06.82c1.089.292 1.953.362 2.59.209.666-.169 1.096-.613 1.289-1.331zm-1.563 7.78c.198-.742.051-1.353-.441-1.832-.487-.503-1.309-.91-2.468-1.221l-3.408-.913-1.202 4.486 3.512.941c.974.261 1.82.301 2.539.121.749-.197 1.238-.724 1.468-1.582zm21.214-8.665c2.619.702 4.492 2.012 5.618 3.929 1.133 1.893 1.33 4.219.59 6.978l-.671 2.504-12.24-3.28c-.345 1.473-.223 2.735.364 3.787.611 1.058 1.647 1.783 3.108 2.175 1.228.329 2.372.511 3.431.546a17.54 17.54 0 003.402-.318l-1.071 3.999a12.132 12.132 0 01-3.226.216c-1.082-.041-2.354-.258-3.814-.649-1.901-.509-3.489-1.307-4.763-2.394-1.268-1.11-2.126-2.496-2.576-4.156-.449-1.661-.382-3.581.202-5.761.596-2.225 1.461-3.969 2.594-5.23 1.163-1.279 2.516-2.109 4.059-2.491 1.543-.381 3.208-.333 4.993.145zm-.953 3.696c-.997-.267-1.919-.166-2.765.303-.823.475-1.476 1.381-1.958 2.717l7.268 1.948c.287-1.166.24-2.197-.14-3.094-.375-.92-1.177-1.545-2.405-1.874zm-3.921-9.847c.217-.811.604-1.328 1.161-1.552.563-.247 1.169-.283 1.818-.109s1.156.508 1.52 1.004c.394.478.482 1.122.264 1.934-.204.765-.6 1.268-1.186 1.508-.563.247-1.169.283-1.819.109-.649-.174-1.155-.508-1.52-1.003-.364-.496-.443-1.126-.238-1.891zm6.85 1.836c.217-.811.604-1.329 1.161-1.552.563-.247 1.181-.28 1.853-.1.649.174 1.156.508 1.52 1.003.394.479.482 1.123.265 1.935-.205.765-.601 1.267-1.187 1.508-.563.247-1.169.283-1.818.109-.673-.18-1.191-.518-1.555-1.013-.364-.495-.444-1.125-.239-1.89zm21.315 10.556c2.133.572 3.637 1.869 4.511 3.892.88 2 .889 4.612.025 7.834-.863 3.222-2.205 5.496-4.027 6.822-1.815 1.303-3.789 1.668-5.921 1.097-1.368-.367-2.392-.902-3.073-1.606-.675-.728-1.184-1.473-1.526-2.235l-.278-.075a15.373 15.373 0 01-.467 2.857l-2.05 7.65-5.181-1.388 7.323-27.332 4.208 1.127.068 2.665.244.065c.715-.628 1.576-1.106 2.583-1.432 1.006-.327 2.194-.307 3.561.059zm-2.777 3.691c-1.345-.36-2.407-.197-3.187.488-.757.692-1.388 1.889-1.895 3.592l-.149.557c-.49 1.831-.603 3.317-.337 4.456.296 1.123 1.162 1.877 2.6 2.262 1.182.317 2.182.063 2.999-.762.847-.841 1.518-2.189 2.015-4.044 1-3.732.318-5.915-2.046-6.549zm16.657 21.123c-2.828-.757-4.81-2.121-5.948-4.09-1.107-1.987-1.211-4.661-.31-8.022.621-2.318 1.522-4.102 2.701-5.351 1.18-1.25 2.558-2.036 4.135-2.358 1.601-.317 3.317-.23 5.148.261 1.298.348 2.389.776 3.271 1.286.905.516 1.67 1.044 2.296 1.584l-2.602 3.589a25.77 25.77 0 00-2.08-1.414 7.487 7.487 0 00-2.003-.872c-2.689-.721-4.546.831-5.571 4.656-.509 1.901-.537 3.397-.084 4.487.476 1.097 1.352 1.816 2.627 2.158 1.089.292 2.089.411 2.998.356a12.371 12.371 0 002.76-.565l-1.183 4.416a8.25 8.25 0 01-2.793.408c-.92.001-2.04-.175-3.362-.529zm29.997-8.51l-6.224-1.668-4.044 15.092-5.181-1.388 4.044-15.092-6.225-1.668 1.044-3.894 17.63 4.724-1.044 3.894zm16.996.38l5.702 1.528-9.952 7.098 5.526 12.065-5.877-1.574-5.173-11.711-2.581 9.633-5.182-1.389 5.088-18.986 5.181 1.388-2.469 9.215 9.737-7.267zm12.075 11.286c-.106.394-.259.874-.461 1.442a48.734 48.734 0 01-.579 1.745c-.185.597-.363 1.12-.533 1.572-.171.451-.293.766-.365.945l12.331-10.97 6.224 1.668-5.087 18.986-5.007-1.341 2.031-7.581c.168-.626.374-1.304.619-2.033.252-.753.487-1.447.708-2.084a50.71 50.71 0 00.549-1.493l-12.288 10.945-6.224-1.668 5.087-18.986 5.008 1.342-2.013 7.511zm33.265 21.585c-2.828-.758-4.811-2.122-5.948-4.091-1.107-1.986-1.211-4.66-.31-8.022.621-2.318 1.521-4.102 2.701-5.351 1.179-1.249 2.558-2.035 4.135-2.358 1.6-.317 3.316-.229 5.148.261 1.298.348 2.388.777 3.27 1.287.906.515 1.671 1.044 2.297 1.584l-2.602 3.589a25.627 25.627 0 00-2.081-1.415 7.467 7.467 0 00-2.002-.872c-2.689-.72-4.546.832-5.571 4.657-.51 1.901-.538 3.396-.085 4.487.477 1.097 1.353 1.816 2.628 2.157 1.089.292 2.088.411 2.998.356a12.368 12.368 0 002.76-.564l-1.184 4.416a8.239 8.239 0 01-2.792.407c-.92.002-2.041-.174-3.362-.528zm23.215-14.912c2.55.683 4.348 1.762 5.394 3.235 1.076 1.456 1.31 3.32.701 5.591l-3.392 12.658-3.616-.969-.319-2.843-.139-.038c-1.085.803-2.141 1.315-3.17 1.536-1.028.222-2.33.121-3.907-.301-1.692-.454-2.964-1.316-3.816-2.588-.846-1.295-.995-2.963-.448-5.003.54-2.017 1.645-3.311 3.313-3.882 1.675-.595 3.939-.56 6.792.105l3.332.781.224-.835c.267-.996.196-1.798-.213-2.405-.386-.6-1.043-1.024-1.97-1.273a9.289 9.289 0 00-2.824-.309c-.949.019-1.917.107-2.904.265l-.762-3.968a15.435 15.435 0 013.708-.348 17.18 17.18 0 014.016.591zm-2.121 10.836c-1.682-.4-2.922-.41-3.72-.027-.798.382-1.318 1.026-1.56 1.93-.212.788-.132 1.418.238 1.89.377.449.936.772 1.678.971 1.113.298 2.139.225 3.078-.219.945-.467 1.579-1.303 1.902-2.509l.419-1.565-2.035-.471zm35.591-10.216c-.439 1.175-1.06 2.151-1.865 2.929-.799.755-1.858 1.229-3.177 1.422-1.319.194-2.975.023-4.969-.511-2.04-.547-3.574-1.219-4.603-2.016-.999-.815-1.621-1.739-1.865-2.774-.245-1.034-.246-2.19-.003-3.466l4.625 1.239c-.226 1.306-.128 2.239.293 2.799s1.235 1.002 2.44 1.325c.997.267 1.868.264 2.612-.009.773-.289 1.379-1.021 1.818-2.196l4.694 1.258zm-17.381 12.152a19.53 19.53 0 01-.461 1.441 50.152 50.152 0 01-.579 1.746 28.22 28.22 0 01-.533 1.571c-.171.452-.293.767-.366.946l12.332-10.97 6.224 1.668-5.087 18.986-5.007-1.342 2.031-7.58c.168-.626.374-1.304.619-2.033.252-.753.487-1.447.708-2.084a50.71 50.71 0 00.549-1.493l-12.288 10.945-6.224-1.668 5.087-18.986 5.008 1.342-2.013 7.511zm36.707 5.959l-6.225-1.668-4.044 15.092-5.181-1.389 4.044-15.091-6.225-1.668 1.044-3.895 17.63 4.724-1.043 3.895zm12.438-1.251c2.55.683 4.348 1.761 5.394 3.234 1.076 1.456 1.31 3.32.701 5.592l-3.392 12.657-3.616-.969-.319-2.843-.139-.037c-1.085.802-2.141 1.314-3.17 1.536-1.028.221-2.33.121-3.907-.302-1.692-.453-2.964-1.316-3.816-2.588-.846-1.295-.995-2.962-.448-5.002.54-2.017 1.645-3.311 3.313-3.883 1.675-.595 3.939-.56 6.792.106l3.332.78.223-.834c.268-.997.197-1.799-.212-2.405-.386-.6-1.043-1.025-1.97-1.273a9.258 9.258 0 00-2.824-.31c-.949.019-1.917.108-2.904.266l-.763-3.969c1.163-.26 2.4-.376 3.709-.348a17.13 17.13 0 014.016.592zm-2.121 10.836c-1.682-.401-2.922-.41-3.72-.028-.798.383-1.318 1.026-1.56 1.93-.212.788-.132 1.418.238 1.89.377.449.936.773 1.678.972 1.113.298 2.139.225 3.078-.219.945-.468 1.579-1.304 1.902-2.509l.419-1.565-2.035-.471z" fill="#000" fill-opacity=".2"/></svg>