<svg width="114" height="75" viewBox="0 0 114 75" fill="none" xmlns="http://www.w3.org/2000/svg"><g clip-path="url(#clip0)"><path d="M23.638 54.086c0-7.732 6.268-14 14-14h44.414c7.731 0 14 6.268 14 14V75H23.638V54.086z" fill="#FFBA4A"/><path fill-rule="evenodd" clip-rule="evenodd" d="M102.52 29.741H90.88v11.64-5.82a5.82 5.82 0 015.82 5.797 5.82 5.82 0 015.82-5.796 5.82 5.82 0 01-5.82-5.817 5.82 5.82 0 01-5.82 5.817v-5.82h11.64zM24.286 11.638c0 6.786 5.5 12.286 12.286 12.286V11.638h.001V36.21 23.925c-6.786 0-12.287 5.5-12.287 12.286 0-6.785-5.5-12.286-12.286-12.286 6.785 0 12.286-5.502 12.286-12.287z" fill="#EB5555"/><circle cx="60.492" cy="17.457" r="17.457" fill="#FFBA4A"/><path fill="#A03C7D" d="M39.155 62.069h41.379V75H39.155z"/><path fill="#A03C7D" d="M74.069 40.086h6.466V75h-6.466zm-34.914 0h6.466V75h-6.466z"/></g><defs><clipPath id="clip0"><path fill="#fff" d="M0 0h114v75H0z"/></clipPath></defs></svg>